<svg id="Layer_1" data-name="Layer 1" xmlns="http://www.w3.org/2000/svg" viewBox="0 0 261.34 354.35"><defs><style>.cls-1{fill:#0074bd;}.cls-1,.cls-2{fill-rule:evenodd;}.cls-2{fill:#ea2d2e;}</style></defs><title>Java-logo1</title><path class="cls-1" d="M130.29,274s-13.53,7.88,9.65,10.53c28.08,3.21,42.43,2.75,73.36-3.1A128.49,128.49,0,0,0,232.81,291c-69.37,29.72-157-1.73-102.52-17Z" transform="translate(-46.13)"/><path class="cls-1" d="M121.81,235.24s-15.18,11.24,8,13.64c30,3.09,53.69,3.35,94.69-4.55a41.88,41.88,0,0,0,14.57,8.89c-83.87,24.53-177.27,1.93-117.27-18Z" transform="translate(-46.13)"/><path class="cls-2" d="M193.27,169.43c17.1,19.68-4.48,37.38-4.48,37.38s43.4-22.4,23.47-50.46c-18.62-26.16-32.89-39.15,44.38-84,0,0-121.3,30.29-63.37,97.05Z" transform="translate(-46.13)"/><path class="cls-1" d="M285,302.73s10,8.26-11,14.64c-40,12.13-166.65,15.79-201.82.49-12.64-5.51,11.07-13.13,18.52-14.74a48.18,48.18,0,0,1,12.22-1.38c-14.06-9.9-90.88,19.45-39,27.86C205.33,352.53,321.7,319.28,285,302.73Z" transform="translate(-46.13)"/><path class="cls-1" d="M136.81,195S72.41,210.34,114,215.9c17.57,2.35,52.57,1.81,85.2-.93,26.65-2.23,53.4-7,53.4-7a113.66,113.66,0,0,0-16.19,8.67c-65.41,17.2-191.74,9.19-155.36-8.39C111.79,193.35,136.81,195,136.81,195Z" transform="translate(-46.13)"/><path class="cls-1" d="M252.34,259.61c66.48-34.54,35.74-67.73,14.28-63.26a49.62,49.62,0,0,0-7.6,2A12.08,12.08,0,0,1,264.7,194c42.45-14.92,75.09,44-13.69,67.35a6,6,0,0,0,1.33-1.75Z" transform="translate(-46.13)"/><path class="cls-2" d="M212.26,0s36.81,36.83-34.93,93.46c-57.53,45.44-13.11,71.33,0,100.94-33.58-30.3-58.21-57-41.69-81.8C159.88,76.17,227.11,58.5,212.26,0Z" transform="translate(-46.13)"/><path class="cls-1" d="M143.34,353.23c63.81,4.08,161.81-2.27,164.13-32.46,0,0-4.46,11.45-52.73,20.53-54.47,10.25-121.66,9.06-161.49,2.48,0,0,8.16,6.76,50.09,9.45Z" transform="translate(-46.13)"/></svg>