<svg xmlns="http://www.w3.org/2000/svg" viewBox="0 0 55.27 14"><defs><style>.cls-1{fill:#0a66c2;}</style></defs><title>Calque 1ldpi</title><g id="Calque_2" data-name="Calque 2"><g id="Calque_1-2" data-name="Calque 1"><polygon class="cls-1" points="0 2.07 2.13 2.07 2.13 9.93 6.13 9.93 6.13 11.93 0 11.93 0 2.07"/><path class="cls-1" d="M7.13,5.27H9.2v6.66H7.13Zm1-3.34a1.2,1.2,0,1,1-1.2,1.2,1.2,1.2,0,0,1,1.2-1.2"/><polygon class="cls-1" points="17.87 2.07 19.93 2.07 19.93 7.93 22.27 5.27 24.8 5.27 22.13 8.33 24.8 11.93 22.2 11.93 19.93 8.6 19.93 8.6 19.93 11.93 17.87 11.93 17.87 2.07"/><path class="cls-1" d="M10.33,5.27h2V6.2a2.12,2.12,0,0,1,1.94-1.07c2.13,0,2.46,1.4,2.46,3.2V12H14.67V8.67c0-.8,0-1.8-1.07-1.8s-1.27.86-1.27,1.73v3.33H10.27V5.27Z"/><path class="cls-1" d="M29.2,7.8A1.25,1.25,0,0,0,28,6.53h-.07A1.4,1.4,0,0,0,26.47,7.8Zm1.73,3a3.54,3.54,0,0,1-2.86,1.33,3.54,3.54,0,1,1,0-7.06c1.93,0,3.13,1.4,3.13,3.53v.67H26.4a1.63,1.63,0,0,0,1.53,1.33,1.82,1.82,0,0,0,1.47-.8Z"/><path class="cls-1" d="M35.6,6.87A1.56,1.56,0,0,0,33.93,8.6a1.67,1.67,0,1,0,3.34,0A1.56,1.56,0,0,0,35.6,6.87m3.6,5.06H37.27v-.86a2.58,2.58,0,0,1-2.07,1.06,3.25,3.25,0,0,1-3.33-3.46c0-1.87,1.13-3.6,3.06-3.6a2.64,2.64,0,0,1,2.14.86V2.07h2.06Z"/><path class="cls-1" d="M54.2,0H42.27A1.14,1.14,0,0,0,41.2,1V13a1,1,0,0,0,1.07,1H54.2a1.15,1.15,0,0,0,1.07-1V1A1,1,0,0,0,54.2,0ZM45.4,11.93H43.33V5.27H45.4Zm-1.07-7.6a1.2,1.2,0,1,1,1.2-1.2A1.2,1.2,0,0,1,44.33,4.33Zm8.87,7.6H51.13V8.67c0-.8,0-1.8-1.06-1.8S48.8,7.73,48.8,8.6v3.33H46.73V5.27h2V6.2a2.12,2.12,0,0,1,1.94-1.07c2.13,0,2.46,1.4,2.46,3.2Z"/></g></g></svg>