<svg id="svg2" xmlns="http://www.w3.org/2000/svg" viewBox="0 0 486.67 435.07"><defs><style>.cls-1{fill:none;}.cls-2{clip-path:url(#clip-path);}.cls-3{clip-path:url(#clip-path-2);}.cls-4{fill:url(#Dégradé_sans_nom);}</style><clipPath id="clip-path" transform="translate(0 -0.03)"><rect class="cls-1" y="0.03" width="486.67" height="435.07"/></clipPath><clipPath id="clip-path-2" transform="translate(0 -0.03)"><path class="cls-1" d="M448.17,299.68C475.25,192.38,410,66.59,299.19,0c49.25,66.6,68.95,145.53,51.71,215.83-1.23,6.17-3.69,12.33-6.16,18.5C323.52,219.64,225.31,159.1,107.12,39.46c-3.7-3.7,64,96.2,139.12,175.13-35.7-21-135.43-92.5-198.22-150.47,7.39,12.34,17.23,24.67,27.08,38.24C128,170.19,195.76,251.58,278.25,314.48c-57.86,35.77-139.12,38.23-221.61,0C35.71,305.85,18.47,293.52,0,280c34.47,54.27,87.42,102.36,151.44,129.49,76.33,33.3,154.51,33.67,217.93-4.92,27.08-13.57,81.26-28.38,110.81,28.36,6.16,16,20.93-58-34.48-125.79,1.23-2.47,1.23-4.94,2.47-7.41Z"/></clipPath><linearGradient id="Dégradé_sans_nom" x1="-438.62" y1="604.01" x2="-437.62" y2="604.01" gradientTransform="matrix(0, 435.1, 435.1, 0, -262560.95, 190843.88)" gradientUnits="userSpaceOnUse"><stop offset="0" stop-color="#f57929"/><stop offset="1" stop-color="#ee222a"/></linearGradient></defs><title>swift-logo1</title><g id="g10"><g id="g12"><g id="g14"><g class="cls-2"><g id="g16"><g class="cls-3"><g id="g22"><path id="path34" class="cls-4" d="M481.6,435.09V435h-.27v-.13h-.13v-.14h-.13v-.13h-.14v-.13h-.13v-.27h-.13V434h-.14v-.27h-.13v-.27h-.13v-.26h-.14v-.4H480v-.27h-.13v-.27h-.14V432h-.13v-.14h-.13v-.26h-.14v-.27h-.13v-.27h-.13v-.26h-.14v-.14h-.13v-.26h-.13v-.27h-.14v-.27h-.13v-.13h-.13v-.27h-.14v-.26H478V429h-.13v-.27h-.14v-.13h-.13v-.27h-.13V428h-.14v-.27h-.13v-.13h-.13v-.27h-.14v-.13h-.13V427h-.13v-.13h-.14v-.27h-.13v-.27h-.13v-.13h-.14v-.27H476v-.13h-.13v-.27h-.14v-.26h-.13v-.14h-.13v-.26h-.14v-.14h-.13v-.26h-.13v-.14h-.14V424h-.13v-.27h-.13v-.13h-.14v-.27h-.13v-.13h-.13V423h-.14v-.13H474v-.27h-.13v-.13h-.14v-.14h-.13V422h-.13v-.14h-.14v-.26h-.13v-.14h-.13v-.13h-.14v-.27h-.13V421h-.13v-.13h-.14v-.27h-.13v-.13h-.13v-.27h-.14V420H472v-.14h-.13v-.26h-.14v-.14h-.13v-.26h-.13v-.14h-.14V419h-.13v-.27h-.13v-.13h-.14v-.13h-.13v-.14h-.13V418h-.14v-.14h-.13v-.13h-.13v-.13h-.14v-.14H470v-.26h-.13v-.14h-.14V417h-.13v-.13h-.13v-.27h-.14v-.13h-.13v-.14h-.13v-.13h-.14V416h-.13v-.27h-.13v-.13h-.14v-.14h-.13v-.13h-.13v-.27h-.14V415H468v-.13h-.13v-.14h-.14v-.13h-.13v-.13h-.13v-.14h-.14v-.13h-.13V414h-.13v-.14h-.14v-.26h-.13v-.14h-.13v-.13h-.14v-.13h-.13v-.14h-.13V413h-.14v-.13H466v-.14h-.13v-.13h-.14v-.13h-.13v-.14h-.13v-.13h-.14V412h-.13v-.27h-.13v-.13h-.14v-.14h-.13v-.13h-.13v-.13h-.14v-.14h-.13V411h-.13v-.13h-.14v-.14h-.26v-.13h-.14v-.13h-.13v-.14h-.13v-.13h-.14V410h-.13v-.14h-.13v-.13h-.14v-.13h-.13v-.14h-.13v-.13h-.14v-.13h-.13v-.14h-.13V409h-.14v-.13H462v-.14h-.27v-.13h-.13v-.13h-.13v-.14h-.14v-.13h-.13V408h-.13v-.14h-.14v-.13h-.13v-.13h-.27v-.14h-.13v-.13h-.13v-.13h-.14v-.14h-.26V407h-.14v-.13h-.13v-.14h-.13v-.13h-.14v-.13h-.26v-.14h-.14v-.13h-.13V406h-.13v-.14h-.27v-.13h-.13v-.13h-.14v-.14H458v-.13h-.13v-.13h-.27v-.14h-.13V405h-.14v-.13h-.26v-.14h-.14v-.13h-.26v-.13h-.14v-.14h-.26v-.13h-.14V404H456v-.14h-.27v-.13h-.13v-.13h-.27v-.14h-.13v-.13h-.13v-.13h-.27v-.14h-.13V403h-.27v-.13h-.13v-.14h-.14v-.13h-.26v-.13h-.27v-.14h-.13v-.13h-.27V402h-.27v-.14h-.13v-.13h-.27v-.13h-.26v-.14h-.14v-.13h-.26v-.13h-.14v-.14h-.26V401h-.27v-.13h-.13v-.14h-.27v-.13h-.27v-.13h-.13v-.14h-.27v-.13h-.26V400h-.27v-.14h-.27v-.13h-.26v-.13h-.27v-.14h-.27v-.13h-.26v-.13H448v-.14h-.27V399h-.13v-.13h-.27v-.14h-.26v-.13h-.27v-.13h-.4v-.14h-.27v-.13h-.26V398h-.27v-.14h-.4v-.13h-.27v-.13h-.26v-.14h-.27v-.13H444v-.13h-.27v-.14h-.26V397h-.4v-.13h-.27v-.14h-.4v-.13H442v-.13h-.27v-.14h-.4v-.13h-.4V396h-.4v-.14h-.26v-.13h-.4v-.13h-.4v-.14h-.4v-.13h-.4v-.13h-.54v-.14h-.4V395h-.53v-.13h-.4v-.14h-.4v-.13h-.53v-.13h-.4v-.14h-.67v-.13h-.53V394h-.54v-.14h-.66v-.13h-.54v-.13h-.66v-.14h-.54v-.13h-.8v-.13h-.93v-.14h-.8V393H428v-.13h-.93v-.14h-1.2v-.13h-1.2v-.13h-1.6v-.14h-2.4v-.13h-6.14v.13h-2.66v.14h-1.6v.13h-1.6v.13H407.6v.14h-1.07V393h-1.06v.13h-.94v.14h-.8v.13h-.8v.13h-.8v.14h-.8v.13h-.66v.13H400V394h-.67v.13h-.66v.13h-.54v.14h-.66v.13h-.54v.13h-.66v.14h-.54V395h-.53v.13h-.53v.14h-.54v.13h-.53v.13h-.53v.14h-.4v.13h-.54v.13h-.53V396h-.4v.13h-.53v.13h-.4v.14h-.4v.13h-.54v.13h-.4v.14h-.4V397h-.4v.13h-.53v.14h-.4v.13h-.4v.13h-.4v.14H386v.13h-.4v.13h-.4V398h-.4v.13h-.4v.13h-.27v.14h-.4v.13h-.4v.13h-.4v.14h-.26V399h-.4v.13h-.4v.14h-.27v.13h-.4v.13h-.4v.14h-.27v.13h-.4v.13h-.26V400h-.4v.13h-.27v.13h-.4v.14h-.27v.13h-.4v.13h-.26v.14h-.4V401h-.27v.13h-.27v.14h-.4v.13h-.26v.13H376v.14h-.4v.13h-.27v.13h-.26V402h-.4v.13h-.27v.13h-.27v.14h-.26v.13h-.27v.13h-.4v.14h-.27V403h-.26v.13h-.27v.14h-.27v.13h-.26v.13h-.4v.14h-.27v.13h-.27v.13h-.26V404h-.27v.13h-.27v.13h-.26v.14h-.27v.13h-.27v.13h-.13v.14h-.27V405h-.26v.13h-.14v.14h-.26v.13H368v.13h-.13v.14h-.27v.13h-.27v.13h-.26V406h-.14v.13h-.26v.13h-.27v.14h-.13v.13H366v.13h-.27v.14h-.26V407h-.14v.13h-.26v.14h-.27v.13h-.27v.13h-.13v.14h-.27v.13h-.26v.13h-.14V408h-.26v.13h-.27v.13h-.27v.14h-.26v.13h-.27v.13h-.27v.14H362V409h-.27v.13h-.26v.14h-.27v.13h-.27v.13h-.26v.14h-.14v.13h-.26v.13H360V410h-.27v.13h-.26v.13h-.27v.14h-.27v.13h-.13v.13h-.27v.14h-.26V411H358v.13h-.27v.14h-.26v.13h-.27v.13h-.27v.14h-.26v.13h-.27v.13h-.27V412h-.26v.13h-.27v.13h-.27v.14h-.26v.13h-.27v.13h-.27v.14h-.26V413H354v.13h-.27v.14h-.26v.13h-.27v.13h-.27v.14h-.26v.13h-.27v.13h-.27V414h-.26v.13h-.27v.13h-.27v.14h-.26v.13h-.27v.13h-.4v.14h-.27V415h-.26v.13h-.27v.14h-.27v.13h-.4v.13h-.26v.14h-.27v.13h-.27v.13h-.26V416h-.4v.13h-.27v.13h-.27v.14h-.26v.13h-.27v.13H346v.14h-.27V417h-.26v.13h-.27v.14h-.27v.13h-.4v.13h-.26v.14h-.4v.13h-.27v.13h-.4V418h-.27v.13h-.26v.13h-.4v.14H342v.13h-.4v.13h-.27v.14h-.4V419h-.26v.13h-.27v.14H340v.13h-.27v.13h-.4v.14h-.26v.13h-.4v.13h-.27V420H338v.13h-.4v.13h-.27v.14h-.4v.13h-.4v.13h-.26v.14h-.4V421h-.4v.13h-.27v.14h-.4v.13h-.4v.13h-.27v.14h-.4v.13h-.4v.13h-.26V422h-.4v.13h-.4v.13h-.4v.14h-.4v.13h-.4v.13h-.4v.14h-.4V423h-.4v.13h-.4v.14h-.4v.13h-.4v.13h-.4v.14h-.4v.13h-.4v.13h-.4V424h-.4v.13h-.4v.13H326v.14h-.53v.13h-.4v.13h-.54v.14h-.4V425h-.4v.13h-.53v.14h-.4v.13h-.4v.13h-.53v.14h-.4v.13h-.4v.13h-.54V426h-.4v.13h-.4v.13h-.53v.14h-.53v.13h-.54v.13h-.4v.14h-.53V427h-.53v.13h-.54v.14h-.53v.13h-.53v.13h-.4v.14h-.54v.13h-.53v.13h-.53V428h-.54v.13H312v.13h-.67v.14h-.53v.13h-.67v.13h-.53v.14h-.67V429h-.53v.13h-.53v.14h-.67v.13h-.53v.13H306v.14h-.67v.13h-.66v.13H304V430h-.8v.13h-.67v.13h-.66v.14h-.67v.13h-.67v.13h-.8v.14h-.8V431h-.8v.13h-.8v.14h-.93v.13h-.8v.13h-.8v.14H294v.13h-.93v.13h-.94V432h-1.06v.13H290v.13h-1.07v.14h-1.06v.13H286.8v.13h-1.2v.14h-1.33V433H282.8v.13h-1.47v.14H280v.13h-1.73v.13H276v.14h-2.13v.13H271.2v.13h-4.4V434H256.53v-.14h-4.4v-.13h-2.66v-.13H247.2v-.14h-2.27v-.13H243.2v-.13h-1.6v-.14h-1.47V433h-1.46v-.13H237.2v-.14H236v-.13h-1.07v-.13h-1.2v-.14h-1.2v-.13h-1.06V432h-1.2v-.14h-.94v-.13h-.93v-.13h-.93v-.14h-.8v-.13h-.94v-.13h-.93v-.14h-.93V431h-.94v-.13h-.8v-.14h-.66v-.13h-.8v-.13h-.8v-.14h-.8v-.13h-.67V430h-.8v-.14h-.8v-.13H216v-.13h-.67v-.14h-.66v-.13H214v-.13h-.67v-.14h-.66V429H212v-.13h-.53v-.14h-.67v-.13h-.67v-.13h-.66v-.14h-.67v-.13h-.67V428h-.53v-.14h-.53v-.13h-.67v-.13h-.53v-.14h-.54v-.13h-.66v-.13h-.54v-.14h-.53V427h-.67v-.13h-.53v-.14h-.67v-.13h-.53v-.13h-.53v-.14h-.4v-.13h-.54V426h-.53v-.14h-.53v-.13h-.54v-.13h-.53v-.14h-.53v-.13h-.54v-.13h-.4v-.14h-.53V425h-.53v-.13h-.54v-.14H194v-.13h-.4v-.13h-.53v-.14h-.4v-.13h-.54V424h-.4v-.14h-.53v-.13h-.4v-.13h-.53v-.14h-.4v-.13h-.54v-.13h-.4v-.14h-.53V423H188v-.13h-.53v-.14h-.4v-.13h-.4v-.13h-.54v-.14h-.4v-.13h-.4V422h-.4v-.14h-.4v-.13H184v-.13h-.4v-.14h-.4v-.13h-.4v-.13h-.4v-.14h-.53V421h-.4v-.13h-.4v-.14h-.4v-.13h-.4v-.13h-.4v-.14h-.4v-.13h-.4V420h-.4v-.14h-.4v-.13h-.4v-.13h-.4v-.14h-.4v-.13h-.4v-.13h-.4v-.14h-.4V419h-.4v-.13h-.4v-.14h-.4v-.13h-.4v-.13h-.4v-.14h-.27v-.13h-.4V418h-.4v-.14h-.4v-.13H172v-.13h-.27v-.14h-.4v-.13h-.4v-.13h-.4v-.14h-.26V417h-.4v-.13h-.4v-.14h-.4v-.13h-.27v-.13h-.4v-.14H168v-.13h-.27V416h-.4v-.14h-.4v-.13h-.4v-.13h-.26v-.14h-.4v-.13h-.4v-.13h-.27v-.14h-.4V415h-.27v-.13h-.4v-.14h-.26v-.13h-.4v-.13h-.27v-.14h-.4v-.13h-.27V414h-.4v-.14h-.26v-.13h-.4v-.13h-.4v-.14h-.27v-.13h-.4v-.13h-.27v-.14h-.4V413h-.26v-.13h-.4v-.14h-.27v-.13h-.4v-.13h-.27v-.14h-.4v-.13h-.26V412h-.27v-.14h-.4v-.13h-.27v-.13h-.4v-.14h-.26v-.13h-.27v-.13h-.4v-.14h-.27V411h-.26v-.13h-.4v-.14H154v-.13h-.4v-.13h-.27v-.14h-.26v-.13h-.4V410h-.27v-.14h-.27v-.13h-.4v-.13h-.26v-.14h-.27v-.13h-.4v-.13h-.27v-.14h-.26V409h-.4v-.13h-.27v-.14h-.27v-.13h-.4v-.13h-.26v-.14h-.27v-.13H148V408h-.27v-.14h-.26v-.13h-.27v-.13h-.27v-.14h-.4v-.13h-.26v-.13H146v-.14h-.27V407h-.26v-.13h-.27v-.14h-.4v-.13h-.27v-.13h-.26v-.14H144v-.13h-.27V406h-.4v-.14h-.26v-.13h-.27v-.13h-.27v-.14h-.26v-.13h-.4v-.13h-.27v-.14h-.27V405h-.26v-.13h-.27v-.14h-.27v-.13h-.4v-.13h-.26v-.14h-.27v-.13h-.27V404h-.26v-.14h-.27v-.13h-.27v-.13h-.26v-.14H138v-.13h-.27v-.13h-.26v-.14h-.27V403h-.27v-.13h-.26v-.14h-.27v-.13h-.27v-.13h-.26v-.14h-.27v-.13h-.27V402h-.26v-.14h-.27v-.13h-.27v-.13h-.26v-.14H134v-.13h-.27v-.13h-.26v-.14h-.27V401h-.27v-.13h-.26v-.14h-.27v-.13h-.27v-.13h-.26v-.14h-.27v-.13h-.27V400h-.26v-.14h-.27v-.13h-.27v-.13h-.26v-.14H130v-.13h-.27v-.13h-.26v-.14h-.27V399h-.27v-.13h-.26v-.14h-.27v-.13h-.27v-.13h-.26v-.14h-.27v-.13h-.27V398h-.26v-.14h-.14v-.13h-.26v-.13h-.27v-.14h-.27v-.13h-.26v-.13h-.14v-.14h-.26V397h-.27v-.13h-.27v-.14h-.26v-.13h-.14v-.13h-.26v-.14H124v-.13h-.27V396h-.26v-.14h-.27v-.13h-.13v-.13h-.27v-.14h-.27v-.13h-.26v-.13H122v-.14h-.13V395h-.27v-.13h-.27v-.14h-.26v-.13h-.27v-.13h-.13v-.14h-.27v-.13h-.27V394h-.26v-.14h-.27v-.13h-.27v-.13h-.13v-.14h-.27v-.13h-.26v-.13h-.27v-.14h-.27V393H118v-.13h-.27v-.14h-.26v-.13h-.27v-.13h-.27v-.14h-.13v-.13h-.27V392h-.26v-.14H116v-.13h-.13v-.13h-.27v-.14h-.13v-.13h-.27v-.13h-.27v-.14h-.13V391h-.27v-.13h-.26v-.14h-.14v-.13h-.26v-.13h-.27v-.14h-.13v-.13h-.27V390h-.27v-.14h-.13v-.13h-.27v-.13h-.26v-.14h-.14v-.13h-.26v-.13h-.27v-.14h-.13V389h-.27v-.13h-.27v-.14h-.13v-.13h-.27v-.13h-.13v-.14h-.27v-.13h-.26V388h-.14v-.14h-.26v-.13h-.27v-.13h-.13v-.14h-.27v-.13h-.27v-.13h-.13v-.14h-.27V387h-.26v-.13h-.14v-.14h-.26v-.13h-.27v-.13h-.13v-.14h-.27v-.13h-.27V386h-.13v-.14h-.27v-.13h-.26v-.13h-.14v-.14h-.26v-.13h-.14v-.13h-.26v-.14h-.14V385h-.26v-.13h-.14v-.14h-.26v-.13h-.14v-.13h-.26v-.14h-.14v-.13h-.26V384h-.14v-.14h-.26v-.13h-.14v-.13h-.26v-.14h-.27v-.13h-.13v-.13H102v-.14h-.13V383h-.27v-.13h-.13v-.14h-.27v-.13h-.13v-.13h-.27v-.14h-.13v-.13h-.27V382h-.13v-.14H100v-.13h-.13v-.13H99.6v-.14h-.13v-.13H99.2v-.13h-.13v-.14H98.8V381h-.13v-.13H98.4v-.14h-.13v-.13H98v-.13h-.13v-.14H97.6v-.13h-.13V380H97.2v-.14h-.13v-.13H96.8v-.13h-.13v-.14H96.4v-.13h-.13v-.13H96v-.14h-.27V379H95.6v-.13h-.27v-.14H95.2v-.13h-.27v-.13H94.8v-.14h-.13v-.13H94.4V378h-.13v-.14H94v-.13h-.13v-.13h-.14v-.14h-.26v-.13h-.14v-.13h-.26v-.14h-.14V377H92.8v-.13h-.27v-.14H92.4v-.13h-.27v-.13H92v-.14h-.13v-.13H91.6V376h-.13v-.14H91.2v-.13h-.13v-.13h-.14v-.14h-.26v-.13h-.14v-.13h-.26v-.14h-.14V375H90v-.13h-.27v-.14H89.6v-.13h-.27v-.13H89.2v-.14h-.13v-.13H88.8V374h-.13v-.14H88.4v-.13h-.13v-.13h-.14v-.14h-.26v-.13h-.14v-.13h-.26v-.14h-.14V373H87.2v-.13h-.27v-.14H86.8v-.13h-.13v-.13H86.4v-.14h-.13v-.13H86V372h-.13v-.14h-.14v-.13h-.26v-.13h-.14v-.14h-.26v-.13h-.14v-.13H84.8v-.14h-.27V371H84.4v-.13h-.27v-.14H84v-.13h-.13v-.13h-.14v-.14h-.26v-.13h-.14V370H83.2v-.14h-.27v-.13H82.8v-.13h-.13v-.14h-.14v-.13h-.26v-.13h-.14v-.14H82V369h-.27v-.13H81.6v-.14h-.13v-.13h-.14v-.13h-.26v-.14h-.14v-.13H80.8V368h-.27v-.14H80.4v-.13h-.13v-.13h-.14v-.14h-.26v-.13h-.14v-.13H79.6v-.14h-.27V367H79.2v-.13h-.13v-.14h-.14v-.13h-.26v-.13h-.14v-.14H78.4v-.13h-.27V366H78v-.14h-.13v-.13H77.6v-.13h-.13v-.14h-.14v-.13H77.2v-.13h-.27v-.14H76.8V365h-.13v-.13H76.4v-.14h-.13v-.13h-.14v-.13H76v-.14h-.27v-.13H75.6V364h-.13v-.14H75.2v-.13h-.13v-.13h-.14v-.14H74.8v-.13h-.27v-.13H74.4v-.14h-.13V363h-.14v-.13h-.26v-.14h-.14v-.13H73.6v-.13h-.13v-.14h-.14v-.13h-.26V362h-.14v-.14H72.8v-.13h-.13v-.13h-.14v-.14h-.26v-.13h-.14v-.13H72v-.14h-.13V361h-.14v-.13h-.26v-.14h-.14v-.13H71.2v-.13h-.13v-.14h-.14v-.13h-.26V360h-.14v-.14H70.4v-.13h-.13v-.13h-.14v-.14h-.26v-.13h-.14v-.13H69.6v-.14h-.13V359h-.14v-.13H69.2v-.14h-.27v-.13H68.8v-.13h-.13v-.14h-.14v-.13H68.4V358h-.27v-.14H68v-.13h-.13v-.13h-.14v-.14H67.6v-.13h-.27v-.13H67.2v-.14h-.13V357h-.14v-.13H66.8v-.14h-.27v-.13H66.4v-.13h-.13v-.14h-.14v-.13H66V356h-.27v-.14H65.6v-.13h-.13v-.13h-.14v-.14H65.2v-.13h-.27v-.13H64.8v-.14h-.13V355h-.14v-.13H64.4v-.14h-.13v-.13h-.14v-.13h-.26v-.14h-.14v-.13H63.6V354h-.13v-.14h-.14v-.13H63.2v-.13h-.13v-.14h-.14v-.13H62.8v-.13h-.27v-.14H62.4V353h-.13v-.13h-.14v-.14H62v-.13h-.13v-.13h-.14v-.14H61.6v-.13h-.13V352H61.2v-.14h-.13v-.13h-.14v-.13H60.8v-.14h-.13v-.13h-.14v-.13H60.4v-.14h-.13V351h-.14v-.13H60v-.14h-.27v-.13H59.6v-.13h-.13v-.14h-.14v-.13H59.2V350h-.13v-.14h-.14v-.13H58.8v-.13h-.13v-.14H58.4v-.13h-.13v-.13h-.14v-.14H58V349h-.13v-.13h-.14v-.14H57.6v-.13h-.13v-.13h-.14v-.14h-.26v-.13h-.14V348H56.8v-.14h-.13v-.13h-.14v-.13H56.4v-.14h-.13v-.13h-.14v-.13H56v-.14h-.27V347H55.6v-.13h-.13v-.14h-.14v-.13H55.2v-.13h-.13v-.14h-.14v-.13H54.8V346h-.13v-.14h-.14v-.13H54.4v-.13h-.13v-.14h-.14v-.13H54v-.13h-.13v-.14h-.14V345H53.6v-.13h-.13v-.14h-.14v-.13H53.2v-.13h-.13v-.14H52.8v-.13h-.13V344h-.14v-.14H52.4v-.13h-.13v-.13h-.14v-.14H52v-.13h-.13v-.13h-.14v-.14H51.6V343h-.13v-.13h-.14v-.14H51.2v-.13h-.13v-.13h-.14v-.14H50.8v-.13h-.13V342h-.14v-.14H50.4v-.13h-.13v-.13h-.14v-.14H50v-.13h-.13v-.13h-.14v-.14H49.6V341h-.13v-.13h-.14v-.14H49.2v-.13h-.13v-.13h-.14v-.14H48.8v-.13h-.13V340H48.4v-.14h-.13v-.13h-.14v-.13H48v-.14h-.13v-.13h-.14v-.13H47.6v-.14h-.13V339h-.14v-.13H47.2v-.14h-.13v-.13h-.14v-.13H46.8v-.14h-.13v-.13h-.14V338H46.4v-.14h-.13v-.13h-.14v-.13H46v-.14h-.13v-.13h-.14v-.13H45.6v-.14h-.13V337h-.14v-.13H45.2v-.14h-.13v-.13h-.14v-.13H44.8v-.14h-.13v-.13h-.14V336H44.4v-.27h-.13v-.13h-.14v-.14H44v-.13h-.13v-.13h-.14v-.14H43.6V335h-.13v-.13h-.14v-.14H43.2v-.13h-.13v-.13h-.14v-.14H42.8v-.13h-.13V334h-.14v-.14H42.4v-.13h-.13v-.13h-.14v-.14H42v-.13h-.13v-.13h-.14v-.14H41.6V333h-.13v-.13h-.14v-.14H41.2v-.26h-.13v-.14h-.14v-.13H40.8V332h-.13v-.14h-.14v-.13H40.4v-.13h-.13v-.14h-.14v-.13H40v-.13h-.13v-.14h-.14V331H39.6v-.13h-.13v-.14h-.14v-.13H39.2v-.13h-.13v-.14h-.14v-.13H38.8V330h-.13v-.14h-.14v-.13H38.4v-.13h-.13v-.14h-.14v-.26H38v-.14h-.13V329h-.14v-.13H37.6v-.14h-.13v-.13h-.14v-.13H37.2v-.14h-.13v-.13h-.14V328H36.8v-.14h-.13v-.13h-.14v-.27H36.4v-.13h-.13v-.13h-.14v-.14H36V327h-.13v-.13h-.14v-.14H35.6v-.13h-.13v-.27h-.14v-.13H35.2V326h-.13v-.14h-.14v-.13H34.8v-.13h-.13v-.14h-.14v-.13H34.4v-.27h-.13V325h-.14v-.13H34v-.14h-.13v-.13h-.14v-.13H33.6v-.14h-.13v-.13h-.14v-.27H33.2v-.13h-.13v-.13h-.14v-.14H32.8v-.13h-.13v-.13h-.14v-.14H32.4V323h-.13v-.13h-.14v-.27H32v-.13h-.13v-.14h-.14v-.13H31.6V322h-.13v-.14h-.14v-.13H31.2v-.13h-.13v-.27h-.14v-.13H30.8v-.14h-.13V321h-.14v-.13H30.4v-.14h-.13v-.13h-.14v-.13H30v-.27h-.13V320h-.14v-.14H29.6v-.13h-.13v-.13h-.14v-.14H29.2v-.13h-.13v-.13h-.14V319H28.8v-.13h-.13v-.14h-.14v-.13H28.4v-.13h-.13v-.27h-.14V318H28v-.14h-.13v-.13h-.14v-.13H27.6v-.27h-.13v-.13h-.14v-.14H27.2V317h-.13v-.27h-.14v-.13H26.8v-.13h-.13v-.14h-.14v-.13H26.4v-.27h-.13v-.13h-.14v-.13H26v-.14h-.13v-.13h-.14v-.27H25.6V315h-.13v-.13h-.14v-.14H25.2v-.13h-.13v-.27h-.14v-.13H24.8V314h-.13v-.14h-.14v-.13H24.4v-.27h-.13v-.13h-.14v-.13H24v-.14h-.13V313h-.14v-.27H23.6v-.13h-.13v-.13h-.14v-.14H23.2v-.13h-.13v-.27h-.14v-.13H22.8v-.13h-.13v-.14h-.14v-.13H22.4v-.27h-.13V311h-.14v-.13H22v-.14h-.13v-.26h-.14v-.14H21.6v-.13h-.13V310h-.14v-.14H21.2v-.26h-.13v-.14h-.14v-.13H20.8v-.27h-.13V309h-.14v-.13H20.4v-.14h-.13v-.26h-.14v-.14H20v-.13h-.13v-.27h-.14v-.13H19.6v-.13h-.13v-.14h-.14v-.26H19.2v-.14h-.13V307h-.14v-.27H18.8v-.13h-.13v-.13h-.14v-.27H18.4V306h-.13v-.14h-.14v-.13H18v-.27h-.13v-.13h-.14v-.13H17.6V305h-.13v-.13h-.14v-.14H17.2v-.26h-.13v-.14h-.14v-.13H16.8V304h-.13v-.27h-.14v-.13H16.4v-.14h-.13v-.26h-.14v-.14H16V303h-.13v-.13h-.14v-.27H15.6v-.13h-.13v-.14h-.14V302H15.2v-.14h-.13v-.13h-.14v-.27H14.8v-.13h-.13v-.13h-.14v-.14H14.4v-.26h-.13v-.14h-.14v-.13H14v-.27h-.13v-.13h-.14V300H13.6v-.27h-.13v-.13h-.14v-.14H13.2v-.26h-.13v-.14h-.14v-.26H12.8v-.14h-.13v-.13h-.14v-.27H12.4v-.13h-.13v-.27h-.14v-.13H12v-.13h-.13v-.27h-.14v-.13H11.6V297h-.13v-.13h-.14v-.14H11.2v-.26h-.13v-.14h-.14V296H10.8v-.14h-.13v-.13h-.14v-.27H10.4v-.13h-.13v-.27h-.14V295H10v-.13H9.87v-.27H9.73v-.13H9.6v-.27H9.47V294H9.33v-.14H9.2v-.26H9.07v-.14H8.93v-.26H8.8v-.14H8.67V293H8.53v-.27H8.4v-.13H8.27v-.27H8.13v-.13H8V292H7.87v-.27H7.73v-.13H7.6v-.27H7.47v-.13H7.33v-.14H7.2v-.26H7.07v-.14H6.93v-.26H6.8v-.14H6.67v-.13H6.53v-.27H6.4v-.13H6.27v-.27H6.13v-.13H6v-.27H5.87V289H5.73v-.27H5.6v-.13H5.47v-.27H5.33v-.13H5.2v-.27H5.07v-.13H4.93v-.27H4.8v-.13H4.67v-.27H4.53V287H4.4v-.27H4.27v-.13H4.13v-.27H4v-.13H3.87v-.27H3.73v-.13H3.6v-.27H3.47v-.13H3.33v-.27H3.2V285H3.07v-.27H2.93v-.13H2.8v-.27H2.67v-.13H2.53v-.27H2.4v-.13H2.27v-.27H2.13v-.13H2v-.27H1.87V283H1.73v-.27H1.6v-.13H1.47v-.27H1.33v-.13H1.2v-.27H1.07v-.13H.93v-.27H.8v-.26H.67v-.14H.53v-.26H.4v-.14H.27v-.26H.13v-.14H0v-.4H.13V280H.4v.13H.53v.13H.67v.14H.93v.13h.14v.13H1.2v.14h.27V281H1.6v.13h.13v.14H2v.13h.13v.13H2.4v.14h.13v.13h.14v.13h.26V282h.14v.13H3.2v.13h.27v.14H3.6v.13h.27v.13H4v.14h.13V283H4.4v.13h.13v.14h.14v.13h.26v.13h.14v.14h.26v.13h.14v.13H5.6V284h.27v.13H6v.13h.13v.14H6.4v.13h.13v.13H6.8v.14h.13V285h.14v.13h.26v.14h.14v.13H7.6v.13h.27v.14H8v.13h.27v.13H8.4V286h.13v.13H8.8v.13h.13v.14H9.2v.13h.13v.13h.14v.14h.26V287h.14v.13h.26v.14h.14v.13h.13v.13h.27v.14h.13v.13h.27v.13h.13V288h.13v.13h.27v.13h.13v.14H12v.13h.13v.13h.14v.14h.26V289h.14v.13h.26v.14h.14v.13h.13v.13h.27v.14h.13v.13h.27v.13H14V290h.27v.13h.13v.13h.13v.14h.27v.13h.13v.13h.27v.14h.13V291h.27v.13h.13v.14H16v.13h.13v.13h.14v.14h.26v.13h.14v.13h.26V292h.14v.13h.26v.13h.14v.14h.26v.13h.14v.13H18v.14h.27V293h.13v.13h.27v.14h.13v.13h.27v.13h.13v.14h.27v.13h.13v.13h.27V294H20v.13h.13v.13h.27v.14h.13v.13h.27v.13h.13v.14h.27V295h.13v.13h.27v.14h.13v.13H22v.13h.27v.14h.13v.13h.27v.13h.13V296h.27v.13h.13v.13h.27v.14h.13v.13h.27v.13H24v.14h.27V297h.13v.13h.27v.14h.13v.13h.27v.13h.13v.14h.27v.13h.26v.13h.14V298h.26v.13h.14v.13h.26v.14h.14v.13h.26v.13h.14v.14h.26V299h.14v.13h.26v.14H28v.13h.13v.13h.27v.14h.13v.13h.27v.13h.27V300h.13v.13h.27v.13h.26v.14h.14v.13h.26v.13h.27v.14h.13V301h.27v.13h.13v.14h.27v.13h.27v.13h.13v.14h.27v.13h.26v.13h.14V302h.26v.13h.27v.13h.13v.14h.27v.13h.13v.13h.27v.14h.27V303H34v.13h.27v.14h.26v.13h.14v.13h.26v.14h.27v.13h.27v.13h.26V304h.14v.13h.26v.13h.27v.14h.27v.13h.26v.13h.14v.14h.26V305h.27v.13h.27v.14H38v.13h.27v.13h.26v.14h.27v.13h.27v.13h.13V306h.27v.13h.26v.13H40v.14h.27v.13h.13v.13h.27v.14h.26V307h.27v.13h.13v.14h.27v.13h.27v.13h.26v.14h.27v.13h.27v.13h.26V308h.27v.13h.27v.13h.26v.14H44v.13h.27v.13h.26v.14h.27V309h.27v.13h.26v.14h.27v.13h.27v.13h.26v.14h.27v.13h.27v.13h.26V310h.27v.13h.27v.13h.26v.14H48v.13h.27v.13h.26v.14h.27V311h.27v.13h.26v.14h.27v.13H50v.13h.27v.14h.26v.13h.27v.13h.27V312h.4v.13h.26v.13H52v.14h.27v.13h.26v.13h.4v.14h.27V313h.27v.13h.26v.14H54v.13h.4v.13h.27v.14h.26v.13h.4v.13h.27V314h.27v.13h.4v.13h.26v.14h.27v.13h.4v.13h.27v.14h.26V315H58v.13h.27v.14h.26v.13h.4v.13h.27v.14h.27v.13h.26v.13h.4V316h.27v.13h.27v.13h.26v.14h.4v.13h.27v.13h.27v.14h.26V317h.4v.13h.27v.14h.27v.13h.4v.13h.26v.14H64v.13h.27v.13h.4V318h.26v.13h.27v.13h.4v.14h.27v.13h.4v.13h.26v.14h.27V319h.4v.13h.27v.14h.4v.13h.26v.13h.27v.14h.4v.13h.27v.13h.26V320h.4v.13H70v.13h.4v.14h.27v.13h.26v.13h.4v.14h.27V321H72v.13h.27v.14h.4v.13h.26v.13h.4v.14h.27v.13H74v.13h.4V322h.27v.13h.4v.13h.26v.14h.4v.13H76v.13h.4v.14h.4V323h.27v.13h.4v.14h.26v.13h.4v.13h.27v.14h.4v.13h.4v.13h.27V324h.4v.13h.26v.13h.4v.14h.4v.13h.4v.13h.4v.14H82V325h.4v.13h.4v.14h.4v.13h.4v.13h.27v.14h.4v.13h.4v.13h.4V326h.26v.13h.4v.13h.4v.14h.4v.13h.4v.13h.27v.14h.4V327H88v.13h.4v.14h.4v.13h.4v.13h.4v.14H90v.13h.4v.13h.53V328h.4v.13h.4v.13h.4v.14h.4v.13h.4v.13h.4v.14h.4V329h.4v.13h.4v.14h.4v.13h.4v.13h.4v.14h.54v.13h.4v.13h.4V330h.53v.13H98v.13h.4v.14h.53v.13h.4v.13h.4v.14h.54V331h.4v.13h.4v.14h.53v.13h.4v.13h.4v.14h.53v.13h.4v.13h.54V332h.53v.13h.4v.13h.53v.14h.54v.13h.4v.13h.53v.14h.53V333h.4v.13h.54v.14h.53v.13h.53v.13h.4v.14h.54v.13h.53v.13h.53V334h.54v.13h.53v.13h.53v.14h.54v.13h.66v.13h.54v.14h.53V335h.53v.13h.54v.14h.53v.13h.53v.13h.54v.14h.66v.13h.67v.13h.53V336h.67v.13h.67v.13h.66v.14h.54v.13h.66v.13h.67v.14h.53V337h.67v.13h.67v.14h.66v.13h.67v.13h.8v.14h.67v.13h.8v.13h.66V338h.67v.13h.8v.13h.67v.14h.8v.13h.8v.13h.8v.14h.93V339h.8v.13h.8v.14h.93v.13h.8v.13h.94v.14h.8v.13h1.06v.13h1.07V340h1.07v.13h1.06v.13h.94v.14h1.06v.13h1.07v.13h1.33v.14h1.47V341h1.33v.13h1.34v.14h1.46v.13h1.6v.13h2v.14h2v.13h2v.13h3.34V342h3.6v.13h10.66V342h4.67v-.14h2.4v-.13h2.53v-.13h2v-.14h1.6v-.13h1.47v-.13H196v-.14h1.6V341h1.07v-.13h1.06v-.14h1.2v-.13H202v-.13h1.2v-.14h1.07v-.13h.93V340h.93v-.14h.8v-.13h.94v-.13h.8v-.14h.93v-.13h.93v-.13h.8v-.14H212V339h.8v-.13h.67v-.14h.66v-.13h.8v-.13h.67v-.14h.8v-.13h.67V338h.66v-.14h.67v-.13h.67v-.13h.53v-.14h.67v-.13h.53v-.13h.67v-.14H222V337h.67v-.13h.53v-.14h.67v-.13h.53v-.13h.53v-.14h.54v-.13H226V336h.53v-.14h.54v-.13h.53v-.13h.53v-.14h.54v-.13h.53v-.13h.4v-.14h.53V335h.54v-.13h.53v-.14h.4v-.13h.53v-.13h.4v-.14h.4v-.13h.54V334h.4v-.14h.53v-.13h.4v-.13h.53v-.14h.4v-.13h.4v-.13h.54v-.14h.4V333h.4v-.13h.4v-.14h.4v-.13h.4v-.13h.4v-.14h.4v-.13h.4V332h.4v-.14h.53v-.13h.4v-.13h.4v-.14h.4v-.13h.4v-.13h.4v-.14h.4V331h.4v-.13h.27v-.14h.4v-.13h.4v-.13h.26v-.14h.4v-.13h.4V330H246v-.14h.4v-.13h.4v-.13h.4v-.14h.27v-.13h.4v-.13h.4v-.14h.26V329h.4v-.13h.4v-.14h.27v-.13h.4v-.13h.27v-.14h.4v-.13h.26V328h.4v-.14h.27v-.13h.27v-.13h.4v-.14h.26v-.13h.4v-.13h.27v-.14h.4V327h.27v-.13h.4v-.14h.26v-.13h.27v-.13h.4v-.14h.27v-.13h.26V326h.4v-.14h.27v-.13h.27v-.13h.26v-.14h.27v-.13h.4v-.13h.27v-.14h.26V325h.27v-.13h.4v-.14h.27v-.13h.26v-.13h.27v-.14h.27v-.13h.4V324h.26v-.14h.27v-.13h.27v-.13h.26v-.14h.27v-.13h.27v-.13h.26v-.14h.27V323h.27v-.13h.26v-.14h.27v-.13h.27v-.13h.26v-.14H264v-.13h.27V322h.26v-.14h.27v-.13h.27v-.13h.4v-.14h.26v-.13H266v-.13h.27v-.14h.26V321h.27v-.13h.27v-.14h.13v-.13h.27v-.13h.26v-.14H268v-.13h.27V320h.26v-.14h.14v-.13h.26v-.13h.27v-.14h.27v-.13h.26v-.13H270v-.14h.27V319h.13v-.13h.27v-.14h.26v-.13h.27v-.13h.27v-.14h.26v-.13h.14V318h.26v-.14h.27v-.13h.27v-.13h.26v-.14h.14v-.13h.26v-.13h.27v-.14h.13V317H274v-.13h.27v-.14h.26v-.13h.14v-.13h.26v-.14h.27v-.13h.13V316h.27v-.14h.27v-.13h.26v-.13h.14v-.14h.26v-.13h.27v-.13h.13v-.14h.27V315h.27v-.13h.13v-.14h.27v-.13H278v-.27h-.27v-.13h-.13V314h-.13v-.14h-.27v-.13h-.13v-.13h-.14v-.14h-.26v-.13h-.14v-.13h-.13v-.14h-.27V313H276v-.13h-.13v-.14h-.27v-.13h-.13v-.13h-.14v-.14h-.13v-.13h-.27V312h-.13v-.14h-.13v-.13h-.27v-.13h-.13v-.14h-.14v-.13h-.26v-.13h-.14v-.14h-.13V311h-.13v-.13h-.27v-.14h-.13v-.13h-.14v-.13h-.13v-.14h-.27v-.13h-.13V310h-.13v-.14h-.14v-.13h-.26v-.13h-.14v-.14h-.13v-.13h-.13v-.13h-.27v-.14h-.13V309h-.14v-.13h-.26v-.14h-.14v-.13h-.13v-.13h-.13v-.14H270v-.13h-.13V308h-.14v-.14h-.13v-.13h-.27v-.13h-.13v-.14h-.13v-.13h-.14v-.13h-.26v-.14h-.14V307h-.13v-.13h-.13v-.14H268v-.13h-.13v-.13h-.14v-.14h-.13v-.13h-.27V306h-.13v-.14h-.13v-.13h-.27v-.13h-.13v-.14h-.14v-.13h-.13v-.13h-.27v-.14H266V305h-.13v-.13h-.14v-.14h-.26v-.13h-.14v-.13h-.13v-.14h-.13v-.13h-.27V304h-.13v-.14h-.14v-.13h-.13v-.13h-.27v-.14H264v-.13h-.13v-.13h-.27v-.14h-.13V303h-.14v-.13h-.13v-.14h-.27v-.13h-.13v-.13h-.13v-.14h-.14v-.13h-.13V302h-.27v-.14H262v-.13h-.13v-.13h-.14v-.14h-.13v-.13h-.27v-.13h-.13v-.14h-.13V301h-.14v-.13h-.13v-.14h-.27v-.13h-.13v-.13h-.13v-.14h-.14v-.13h-.26V300h-.14v-.14h-.13v-.13h-.13v-.13h-.14v-.14h-.26v-.13h-.14v-.13h-.13v-.14h-.13V299h-.14v-.13h-.26v-.14h-.14v-.13H258v-.13h-.13v-.14h-.14v-.13h-.26V298h-.14v-.14h-.13v-.13h-.13v-.13h-.14v-.14h-.26v-.13h-.14v-.13h-.13v-.14h-.13V297h-.14v-.13h-.26v-.14h-.14v-.13h-.13v-.13h-.13v-.14h-.27v-.13h-.13V296h-.14v-.14h-.13v-.13h-.13v-.13h-.27v-.14h-.13v-.13h-.14v-.13H254v-.14h-.13V295h-.27v-.13h-.13v-.14h-.14v-.13h-.13v-.13h-.13v-.14h-.27v-.13h-.13V294h-.14v-.14h-.13v-.13h-.13v-.13H252v-.14h-.13v-.13h-.14v-.13h-.13v-.14h-.13V293h-.27v-.13h-.13v-.14h-.14v-.13h-.13v-.13h-.27v-.14h-.13v-.13h-.13V292h-.14v-.14H250v-.13h-.27v-.13h-.13v-.14h-.13v-.13h-.14v-.13h-.13v-.14h-.27V291h-.13v-.13h-.13v-.14h-.14v-.13h-.13v-.13h-.27v-.14H248v-.13h-.13V290h-.14v-.14h-.13v-.13h-.13v-.13h-.27v-.14h-.13v-.13h-.14v-.13h-.13v-.14h-.13V289h-.14v-.13h-.13v-.14h-.27v-.13H246v-.13h-.13v-.14h-.14v-.13h-.13V288h-.13v-.14h-.14v-.13h-.26v-.13h-.14v-.14h-.13v-.13h-.13v-.13h-.14v-.14h-.13V287h-.27v-.13H244v-.14h-.13v-.13h-.14v-.13h-.13v-.14h-.13v-.13h-.14V286h-.26v-.14h-.14v-.13h-.13v-.13h-.13v-.14h-.14v-.13h-.13v-.13h-.13v-.14H242V285h-.13v-.13h-.14v-.14h-.13v-.13h-.13v-.13h-.14v-.14h-.13v-.13h-.27V284h-.13v-.14h-.13v-.13h-.14v-.13h-.13v-.14h-.13v-.13h-.14v-.13h-.26v-.14h-.14V283h-.13v-.13h-.13v-.14h-.14v-.13h-.13v-.13h-.27v-.14h-.13v-.13h-.13V282h-.14v-.14h-.13v-.13h-.13v-.13h-.14v-.14h-.26v-.13h-.14v-.13h-.13v-.14h-.13V281h-.14v-.13h-.13v-.14h-.13v-.13h-.27v-.13h-.13v-.14h-.14v-.13h-.13V280h-.13v-.14h-.14v-.13H236v-.13h-.27v-.14h-.13v-.13h-.13v-.13h-.14v-.14h-.13V279h-.13v-.13h-.14v-.14h-.26v-.13h-.14v-.13h-.13v-.14h-.13v-.13h-.14V278H234v-.14h-.27v-.13h-.13v-.13h-.13v-.14h-.14v-.13h-.13v-.13h-.13v-.14h-.14V277h-.13v-.13h-.13v-.14h-.27v-.13h-.13v-.13h-.14v-.14H232v-.13h-.13V276h-.14v-.14h-.13v-.13h-.13v-.13h-.14v-.14h-.13v-.13h-.13v-.13h-.27v-.14h-.13V275h-.14v-.13h-.13v-.14h-.13v-.13h-.14v-.13H230v-.14h-.13v-.13h-.14V274h-.13v-.14h-.27v-.13h-.13v-.13h-.13v-.14h-.14v-.13h-.13v-.13h-.13v-.14h-.14V273h-.13v-.13h-.13v-.14h-.14v-.13H228v-.13h-.27v-.14h-.13v-.13h-.13V272h-.14v-.14h-.13v-.13h-.13v-.13h-.14v-.14h-.13v-.13h-.13v-.13h-.14v-.14h-.26V271h-.14v-.13H226v-.14h-.13v-.13h-.14v-.13h-.13v-.14h-.13v-.13h-.14V270h-.13v-.14h-.13v-.13h-.14v-.13h-.26v-.14h-.14v-.13h-.13v-.13h-.13v-.14h-.14V269H224v-.13h-.13v-.14h-.14v-.13h-.13v-.13h-.13v-.14h-.27v-.13h-.13V268h-.14v-.14h-.13v-.13h-.13v-.13h-.14v-.14h-.13v-.13h-.13v-.13h-.14v-.14H222V267h-.13v-.13h-.27v-.14h-.13v-.13h-.14v-.13h-.13v-.14h-.13v-.13h-.14V266h-.13v-.14h-.13v-.13h-.14v-.13h-.13v-.14h-.13v-.13H220v-.13h-.13v-.14h-.14V265h-.13v-.13h-.13v-.14h-.14v-.13h-.13v-.13h-.13v-.14h-.14v-.13h-.13V264h-.13v-.14h-.14v-.13h-.13v-.13h-.27v-.14H218v-.13h-.13v-.13h-.14v-.14h-.13V263h-.13v-.13h-.14v-.14h-.13v-.13h-.13v-.13h-.14v-.14h-.13v-.13h-.13V262h-.14v-.14h-.13v-.13h-.13v-.13h-.14v-.14H216v-.13h-.13v-.13h-.14v-.14h-.13V261h-.13v-.13h-.27v-.14h-.13v-.13h-.14v-.13h-.13v-.14h-.13v-.13h-.14V260h-.13v-.14h-.13v-.13h-.14v-.13H214v-.14h-.13v-.13h-.14v-.13h-.13v-.14h-.13V259h-.14v-.13h-.13v-.14h-.13v-.13h-.14v-.13h-.13v-.14h-.13v-.13h-.27V258h-.13v-.14h-.14v-.13H212v-.13h-.13v-.14h-.14v-.13h-.13v-.13h-.13v-.14h-.14V257h-.13v-.13h-.13v-.14h-.14v-.13h-.13v-.13h-.13v-.14h-.14v-.13h-.13V256h-.13v-.14h-.14v-.13H210v-.13h-.13v-.14h-.14v-.13h-.26v-.13h-.14v-.14h-.13V255h-.13v-.13h-.14v-.14h-.13v-.13h-.13v-.13h-.14v-.14h-.13v-.13h-.13V254h-.14v-.14H208v-.13h-.13v-.13h-.14v-.14h-.13v-.13h-.13v-.13h-.14v-.14h-.13V253h-.13v-.13h-.14v-.14h-.13v-.13h-.27v-.13h-.13v-.14h-.13v-.13h-.14V252H206v-.14h-.13v-.13h-.14v-.13h-.13v-.14h-.13v-.13h-.14v-.13h-.13v-.14h-.13V251h-.14v-.13h-.13v-.14h-.13v-.13h-.14v-.13h-.13v-.14h-.13v-.13h-.14V250H204v-.14h-.13v-.13h-.14v-.13h-.13v-.14h-.13v-.13h-.14v-.13h-.13v-.14h-.13V249h-.14v-.13h-.13v-.14h-.13v-.13h-.14v-.13h-.13v-.14h-.13v-.13h-.14V248H202v-.14h-.13v-.13h-.14v-.13h-.13v-.14h-.13v-.13h-.14v-.13h-.13v-.14h-.13V247h-.14v-.13h-.13v-.14h-.13v-.13h-.14v-.13h-.13v-.14h-.13v-.13h-.14V246H200v-.14h-.13v-.13h-.14v-.13h-.13v-.14h-.13v-.13h-.14v-.13h-.13v-.14h-.13V245h-.14v-.13h-.13v-.14h-.13v-.13h-.14v-.13h-.13v-.14h-.13v-.13h-.14V244H198v-.14h-.13v-.13h-.14v-.13h-.13v-.14h-.13v-.13h-.14v-.13h-.13v-.14h-.13V243h-.14v-.13h-.13v-.14h-.13v-.13h-.14v-.13h-.26v-.14h-.14v-.13H196V242h-.13v-.14h-.14v-.13h-.13v-.13h-.13v-.14h-.14v-.13h-.13v-.13h-.13v-.14h-.14V241h-.13v-.13h-.13v-.14h-.14v-.13h-.13v-.13h-.13v-.14h-.14v-.13H194V240h-.13v-.14h-.14v-.13h-.13v-.13h-.13v-.14h-.14v-.13h-.13v-.13h-.13v-.14h-.14V239h-.13v-.13h-.13v-.14h-.14v-.13h-.13v-.13h-.13v-.14h-.14v-.13H192V238h-.13v-.14h-.14v-.13h-.13v-.13h-.13v-.14h-.14v-.13h-.13v-.13h-.13v-.14h-.14V237h-.13v-.13h-.13v-.14h-.14v-.26h-.13v-.14h-.13v-.13h-.14V236H190v-.14h-.13v-.13h-.14v-.13h-.13v-.14h-.13v-.13h-.14v-.13h-.13v-.14h-.13V235h-.14v-.13h-.13v-.14h-.13v-.13h-.14v-.13h-.13v-.14h-.13v-.13h-.14V234H188v-.14h-.13v-.13h-.14v-.13h-.13v-.14h-.13v-.13h-.14v-.13h-.13v-.14h-.13V233h-.14v-.13h-.13v-.14h-.13v-.13h-.14v-.13h-.13v-.14h-.13v-.13h-.14v-.27H186v-.13h-.13v-.13h-.14v-.14h-.13v-.13h-.13v-.13h-.14v-.14h-.13V231h-.13v-.13h-.14v-.14h-.13v-.13h-.13v-.13h-.14v-.14h-.13v-.13h-.13V230h-.14v-.14H184v-.13h-.13v-.13h-.14v-.14h-.13v-.13h-.13v-.13h-.14v-.14h-.13V229h-.13v-.13h-.14v-.14h-.13v-.13h-.13v-.13h-.14v-.14h-.13v-.13h-.13V228h-.14v-.14H182v-.13h-.13v-.13h-.14v-.27h-.13v-.13h-.13v-.14h-.14V227h-.13v-.13h-.13v-.14h-.14v-.13h-.13v-.13h-.13v-.14h-.14v-.13h-.13V226h-.13v-.14h-.14v-.13H180v-.13h-.13v-.14h-.14v-.13h-.13v-.13h-.13v-.14h-.14V225h-.13v-.13h-.13v-.14h-.14v-.13h-.13v-.13h-.13v-.14h-.14v-.13h-.13V224h-.13v-.14h-.14v-.13H178v-.13h-.13v-.27h-.14v-.13h-.13v-.14h-.13V223h-.14v-.13h-.13v-.14h-.13v-.13h-.14v-.13h-.13v-.14h-.13v-.13h-.14V222h-.13v-.14h-.13v-.13h-.14v-.13H176v-.14h-.13v-.26h-.14v-.14h-.13V221h-.13v-.13h-.14v-.14h-.13v-.13h-.13v-.13h-.14v-.14h-.13v-.13h-.13V220h-.14v-.14h-.13v-.13h-.13v-.13h-.14v-.14H174v-.13h-.13v-.27h-.14V219h-.13v-.13h-.13v-.14h-.14v-.13h-.13v-.13h-.13v-.14h-.14v-.13h-.13V218h-.13v-.14h-.14v-.13h-.13v-.13h-.13v-.14h-.14v-.13H172v-.13h-.13V217h-.14v-.13h-.13v-.14h-.13v-.13h-.14v-.13h-.13v-.14h-.13v-.13h-.14V216h-.13v-.14h-.13v-.13h-.14v-.13h-.13v-.14h-.13v-.13h-.14v-.13H170v-.14h-.13v-.26h-.14v-.14h-.13v-.13h-.13v-.13h-.14v-.14h-.13v-.13h-.13V214h-.14v-.14h-.13v-.13h-.13v-.13h-.14v-.14h-.13v-.13h-.13v-.13h-.14v-.14H168V213h-.13v-.27h-.14v-.13h-.13v-.13h-.13v-.14h-.14v-.13h-.13V212h-.13v-.14h-.14v-.13h-.13v-.13h-.13v-.14h-.14v-.13h-.13v-.13h-.13v-.14h-.14V211H166v-.13h-.13v-.14h-.14v-.26h-.13v-.14h-.13v-.13h-.14V210h-.13v-.14h-.13v-.13h-.14v-.13h-.13v-.14h-.13v-.13h-.14v-.13h-.13V209h-.13v-.13h-.14v-.14H164v-.13h-.13v-.13h-.14v-.14h-.13v-.13h-.13V208h-.14v-.14h-.13v-.13h-.13v-.27h-.14v-.13h-.13v-.13h-.13v-.14h-.14V207h-.13v-.13h-.13v-.14h-.14v-.13H162v-.13h-.13v-.14h-.14V206h-.13v-.14h-.13v-.13h-.14v-.13h-.13v-.14h-.13v-.13h-.14v-.13h-.13v-.14h-.13V205h-.14v-.13h-.13v-.27h-.13v-.13h-.14v-.14H160v-.13h-.13V204h-.14v-.14h-.13v-.13h-.13v-.13h-.14v-.14h-.13v-.13h-.13v-.27h-.14V203h-.13v-.13h-.13v-.14h-.14v-.13h-.13v-.13h-.13v-.14h-.14v-.13H158V202h-.13v-.14h-.14v-.26h-.13v-.14h-.13v-.13h-.14v-.13h-.13v-.14h-.13V201h-.14v-.13h-.13v-.14h-.13v-.13h-.14v-.13h-.13v-.27h-.13V200h-.14v-.14H156v-.13h-.13v-.13h-.14v-.14h-.13v-.13h-.13v-.13h-.14v-.14h-.13V199h-.13v-.27h-.14v-.13h-.13v-.13h-.13v-.14h-.14v-.13h-.13V198h-.13v-.14h-.14v-.13H154v-.13h-.13v-.14h-.14v-.26h-.13v-.14h-.13V197h-.14v-.13h-.13v-.14h-.13v-.13h-.14v-.13h-.13v-.14h-.13v-.13h-.14v-.27h-.13v-.13h-.13v-.13h-.14v-.14H152v-.13h-.13v-.13h-.14v-.14h-.13v-.26h-.13v-.14h-.14v-.13h-.13v-.13h-.13v-.14h-.14v-.13h-.13V194h-.13v-.14h-.14v-.26h-.13v-.14h-.13v-.13h-.14v-.13H150v-.14h-.13V193h-.14v-.13h-.13v-.27h-.13v-.13h-.14v-.14h-.13v-.13h-.13V192h-.14v-.14h-.13v-.13h-.13v-.13h-.14v-.27h-.13v-.13h-.13v-.14h-.14V191H148v-.13h-.13v-.14h-.14v-.13h-.13v-.13h-.13v-.27h-.14V190h-.13v-.14h-.13v-.13h-.14v-.13h-.13v-.14h-.13v-.13h-.14v-.27h-.13V189h-.13v-.13h-.14v-.14H146v-.13h-.13v-.13h-.14v-.14h-.13v-.13h-.13v-.27h-.14v-.13h-.13v-.13h-.13v-.14h-.14v-.13h-.13v-.13h-.13v-.14h-.14v-.26h-.13v-.14h-.13v-.13h-.14v-.13H144v-.14h-.13v-.13h-.14V186h-.13v-.14h-.13v-.26h-.14v-.14h-.13v-.13h-.13v-.13h-.14v-.14h-.13V185h-.13v-.13h-.14v-.27h-.13v-.13h-.13v-.14h-.14v-.13H142V184h-.13v-.14h-.14v-.13h-.13v-.13h-.13v-.27h-.14v-.13h-.13v-.14h-.13V183h-.14v-.13h-.13v-.14h-.13v-.13h-.14v-.27h-.13v-.13h-.13V182h-.14v-.14H140v-.13h-.13v-.13h-.14v-.27h-.13v-.13h-.13v-.14h-.14V181h-.13v-.13h-.13v-.14h-.14v-.26h-.13v-.14h-.13v-.13h-.14V180h-.13v-.14h-.13v-.13h-.14v-.27H138v-.13h-.13v-.13h-.14v-.14h-.13V179h-.13v-.13h-.14v-.27h-.13v-.13h-.13v-.14h-.14v-.13h-.13V178h-.13v-.14h-.14v-.13h-.13v-.27h-.13v-.13h-.14v-.13H136v-.14h-.13V177h-.14v-.13h-.13v-.27h-.13v-.13h-.14v-.14h-.13v-.13h-.13V176h-.14v-.14h-.13v-.26h-.13v-.14h-.14v-.13h-.13v-.13h-.13v-.14h-.14V175H134v-.27h-.13v-.13h-.14v-.13h-.13v-.14h-.13v-.13h-.14V174h-.13v-.27h-.13v-.13h-.14v-.14h-.13v-.13h-.13v-.13h-.14v-.14h-.13v-.26h-.13v-.14h-.14v-.13H132v-.13h-.13v-.14h-.14v-.13h-.13V172h-.13v-.27h-.14v-.13h-.13v-.14h-.13v-.13h-.14v-.13h-.13v-.14h-.13v-.26h-.14v-.14h-.13v-.13h-.13v-.13h-.14v-.14H130v-.13h-.13v-.27h-.14v-.13h-.13v-.13h-.13v-.14h-.14v-.13h-.13v-.13h-.13V169h-.14v-.13h-.13v-.14h-.13v-.13h-.14v-.13h-.13v-.27h-.13V168h-.14v-.14H128v-.13h-.13v-.13h-.14v-.14h-.13v-.26h-.13v-.14h-.14V167h-.13v-.13h-.13v-.14h-.14v-.26h-.13v-.14h-.13v-.13h-.14V166h-.13v-.14h-.13v-.26h-.14v-.14H126v-.13h-.13v-.13h-.14v-.14h-.13v-.26h-.13v-.14h-.14v-.13h-.13v-.13h-.13v-.14h-.14v-.13h-.13v-.27h-.13v-.13h-.14v-.13h-.13v-.14h-.13v-.13h-.14v-.27H124V163h-.13v-.13h-.14v-.14h-.13v-.13h-.13v-.27h-.14v-.13h-.13V162h-.13v-.14h-.14v-.13h-.13v-.27h-.13v-.13h-.14v-.13h-.13v-.14h-.13V161h-.14v-.13H122v-.27h-.13v-.13h-.14v-.14h-.13v-.13h-.13V160h-.14v-.27h-.13v-.13h-.13v-.14h-.14v-.13h-.13v-.13h-.13V159h-.14v-.13h-.13v-.14h-.13v-.13h-.14v-.13H120v-.27h-.13V158h-.14v-.14h-.13v-.13h-.13v-.13h-.14v-.14h-.13v-.26h-.13v-.14h-.14V157h-.13v-.13h-.13v-.14h-.14v-.26h-.13v-.14h-.13v-.13h-.14V156H118v-.14h-.13v-.26h-.14v-.14h-.13v-.13h-.13v-.13h-.14v-.14h-.13v-.26h-.13v-.14h-.14v-.13h-.13v-.13h-.13v-.14h-.14V154h-.13v-.14h-.13v-.13h-.14v-.13H116v-.27h-.13v-.13h-.14v-.14h-.13V153h-.13v-.13h-.14v-.27h-.13v-.13h-.13v-.14h-.14v-.13h-.13V152h-.13v-.27h-.14v-.13h-.13v-.14h-.13v-.13h-.14v-.27H114V151h-.13v-.13h-.14v-.14h-.13v-.13h-.13v-.27h-.14v-.13h-.13V150h-.13v-.14h-.14v-.13h-.13v-.27h-.13v-.13h-.14v-.13h-.13v-.14h-.13v-.26h-.14v-.14H112v-.13h-.13v-.13h-.14v-.14h-.13V148h-.13v-.14h-.14v-.13h-.13v-.13h-.13v-.27h-.14v-.13h-.13v-.14h-.13V147h-.14v-.13h-.13v-.27h-.13v-.13h-.14v-.14H110v-.13h-.13V146h-.14v-.27h-.13v-.13h-.13v-.14h-.14v-.13h-.13v-.27h-.13V145h-.14v-.13h-.13v-.14h-.13v-.13h-.14v-.27h-.13v-.13h-.13V144h-.14v-.14H108v-.13h-.13v-.27h-.14v-.13h-.13v-.13h-.13v-.14h-.14v-.26h-.13v-.14h-.13v-.13h-.14v-.13h-.13v-.14h-.13V142h-.14v-.14h-.13v-.13h-.13v-.13h-.14v-.27H106v-.13h-.13v-.14h-.14V141h-.13v-.27h-.13v-.13h-.14v-.13h-.13v-.14h-.13v-.13h-.14v-.27h-.13v-.13h-.13v-.13h-.14v-.14h-.13v-.26h-.13v-.14h-.14V139H104v-.13h-.13v-.27h-.14v-.13h-.13v-.14h-.13v-.13h-.14v-.27h-.13v-.13h-.13v-.13h-.14v-.14h-.13v-.26h-.13v-.14h-.14V137h-.13v-.13h-.13v-.14h-.14v-.26H102v-.14h-.13v-.13h-.14V136h-.13v-.27h-.13v-.13h-.14v-.14h-.13v-.13h-.13v-.27h-.14V135h-.13v-.13h-.13v-.14h-.14v-.26h-.13v-.14h-.13v-.13h-.14V134H100v-.27h-.13v-.13h-.14v-.14H99.6v-.13h-.13v-.13h-.14V133H99.2v-.13h-.13v-.14h-.14v-.13H98.8v-.27h-.13v-.13h-.14V132H98.4v-.14h-.13v-.26h-.14v-.14H98v-.13h-.13v-.13h-.14V131H97.6v-.13h-.13v-.14h-.14v-.13H97.2v-.27h-.13v-.13h-.14V130H96.8v-.14h-.13v-.13h-.14v-.27H96.4v-.13h-.13v-.13h-.14v-.14H96v-.26h-.13v-.14h-.14v-.13H95.6v-.13h-.13v-.27h-.14V128H95.2v-.14h-.13v-.13h-.14v-.27H94.8v-.13h-.13v-.13h-.14v-.14H94.4v-.26h-.13v-.14h-.14v-.13H94v-.13h-.13v-.27h-.14V126H93.6v-.14h-.13v-.26h-.14v-.14H93.2v-.13h-.13v-.13h-.14V125H92.8v-.13h-.13v-.14h-.14v-.13H92.4v-.27h-.13v-.13h-.14V124H92v-.14h-.13v-.26h-.14v-.14H91.6v-.13h-.13v-.13h-.14V123H91.2v-.13h-.13v-.14h-.14v-.13H90.8v-.27h-.13v-.13h-.14V122H90.4v-.14h-.13v-.26h-.14v-.14H90v-.13h-.13v-.13h-.14V121H89.6v-.13h-.13v-.14h-.14v-.26H89.2v-.14h-.13v-.13h-.14V120H88.8v-.27h-.13v-.13h-.14v-.14H88.4v-.13h-.13v-.27h-.14V119H88v-.13h-.13v-.14h-.14v-.26H87.6v-.14h-.13v-.13h-.14V118H87.2v-.27h-.13v-.13h-.14v-.14H86.8v-.13h-.13v-.27h-.14V117H86.4v-.13h-.13v-.14h-.14v-.26H86v-.14h-.13v-.13h-.14V116H85.6v-.27h-.13v-.13h-.14v-.14H85.2v-.26h-.13v-.14h-.14V115H84.8v-.13h-.13v-.27h-.14v-.13H84.4v-.14h-.13v-.13h-.14v-.27H84v-.13h-.13v-.13h-.14v-.27H83.6v-.13h-.13v-.14h-.14V113H83.2v-.27h-.13v-.13h-.14v-.13H82.8v-.14h-.13V112h-.14v-.14H82.4v-.13h-.13v-.27h-.14v-.13H82v-.13h-.13v-.14h-.14v-.26H81.6v-.14h-.13v-.13h-.14v-.13H81.2v-.27h-.13V110h-.14v-.14H80.8v-.13h-.13v-.27h-.14v-.13H80.4v-.13h-.13V109h-.14v-.13H80v-.14h-.13v-.13h-.14v-.27H79.6v-.13h-.13V108h-.14v-.14H79.2v-.26h-.13v-.14h-.14v-.13H78.8v-.27h-.13V107h-.14v-.13H78.4v-.14h-.13v-.26h-.14v-.14H78v-.13h-.13V106h-.14v-.27H77.6v-.13h-.13v-.14h-.14v-.26H77.2v-.14h-.13V105h-.14v-.13H76.8v-.27h-.13v-.13h-.14v-.14H76.4V104h-.13v-.14h-.14v-.13H76v-.13h-.13v-.27h-.14v-.13H75.6v-.14h-.13v-.26h-.14v-.14H75.2v-.13h-.13v-.13h-.14v-.27H74.8V102h-.13v-.27h-.14v-.13H74.4v-.14h-.13v-.26h-.14v-.14H74V101h-.13v-.27h-.14v-.13H73.6v-.13h-.13v-.27h-.14V100H73.2v-.27h-.13v-.13h-.14v-.14H72.8v-.26h-.13v-.14h-.14V99H72.4v-.27h-.13v-.13h-.14v-.13H72v-.27h-.13V98h-.14v-.27H71.6v-.13h-.13v-.14h-.14v-.26H71.2v-.14h-.13V97h-.14v-.27H70.8v-.13h-.13v-.13h-.14v-.27H70.4V96h-.13v-.14h-.14v-.26H70v-.14h-.13v-.13h-.14v-.27H69.6V95h-.13v-.13h-.14v-.27H69.2v-.13h-.13v-.14h-.14V94H68.8v-.14h-.13v-.26h-.14v-.14H68.4v-.13h-.13v-.27h-.14V93H68v-.13h-.13v-.27h-.14v-.13H67.6v-.14h-.13V92h-.14v-.14H67.2v-.13h-.13v-.27h-.14v-.13H66.8v-.13h-.13V91h-.14v-.13H66.4v-.14h-.13v-.26h-.14v-.14H66v-.13h-.13v-.27h-.14v-.13H65.6v-.13h-.13v-.27h-.14v-.13H65.2V89h-.13v-.13h-.14v-.14H64.8v-.26h-.13v-.14h-.14v-.13H64.4v-.27h-.13v-.13h-.14v-.13H64v-.27h-.13v-.13h-.14v-.14H63.6v-.26h-.13v-.14h-.14v-.13H63.2v-.27h-.13v-.13h-.14V86H62.8v-.27h-.13v-.13h-.14v-.27H62.4v-.13h-.13v-.14h-.14v-.26H62v-.14h-.13v-.13h-.14v-.27H61.6v-.13h-.13V84h-.14v-.27H61.2v-.13h-.13v-.27h-.14v-.13H60.8v-.14h-.13v-.26h-.14v-.14H60.4v-.13h-.13v-.27h-.14v-.13H60V82h-.13v-.27h-.14v-.13H59.6v-.27h-.13v-.13h-.14v-.14H59.2v-.26h-.13v-.14h-.14v-.26H58.8v-.14h-.13v-.13h-.14v-.27H58.4v-.13h-.13v-.27h-.14v-.13H58v-.13h-.13V79h-.14v-.13H57.6v-.14h-.13v-.26h-.14v-.14H57.2V78h-.13v-.14h-.14v-.26H56.8v-.14h-.13v-.13h-.14v-.27H56.4V77h-.13v-.27h-.14v-.13H56v-.27h-.13v-.13h-.14V76H55.6v-.27h-.13v-.13h-.14v-.27H55.2v-.13h-.13V75h-.14v-.13H54.8v-.14h-.13v-.26h-.14v-.14H54.4V74h-.13v-.14h-.14v-.26H54v-.14h-.13v-.26h-.14v-.14H53.6v-.26h-.13v-.14h-.14v-.26H53.2v-.14h-.13V72h-.14v-.14H52.8v-.26h-.13v-.14h-.14v-.26H52.4v-.14h-.13v-.26h-.14v-.14H52v-.26h-.13v-.14h-.14V70H51.6v-.14h-.13v-.26h-.14v-.14H51.2v-.26h-.13v-.14h-.14v-.26H50.8v-.14h-.13v-.26h-.14v-.14H50.4V68h-.13v-.27h-.14v-.13H50v-.27h-.13v-.13h-.14V67H49.6v-.27h-.13v-.13h-.14v-.27H49.2v-.13h-.13v-.27h-.14v-.13H48.8v-.27h-.13v-.26h-.14v-.14H48.4v-.26h-.13v-.27h-.14v-.13H48V64h.13v.13h.14v.13h.13v.14h.13v.13h.14v.13h.13v.14h.13V65h.27v.13h.13v.14h.14v.13h.13v.13h.13v.14h.14v.13H50v.13h.13V66h.14v.13h.13v.13h.13v.14h.27v.13h.13v.13h.14v.14h.13V67h.13v.13h.14v.14h.13v.13h.13v.13h.14v.14H52v.13h.27v.13h.13V68h.13v.13h.14v.13h.13v.14h.13v.13h.14v.13h.13v.14h.13V69h.14v.13h.26v.14h.14v.13H54v.13h.13v.14h.14v.13h.13v.13h.13V70h.14v.13h.13v.13h.27v.14h.13v.13h.13v.13h.14v.14h.13V71h.13v.13h.14v.14H56v.13h.27v.13h.13v.14h.13v.13h.14v.13h.13V72h.13v.13h.14v.13h.13v.14h.13v.13h.27v.13h.13v.14h.14V73H58v.13h.13v.14h.14v.13h.13v.13h.13v.14h.14v.13h.26v.13h.14V74h.13v.13h.13v.13h.14v.14h.13v.13h.13v.13h.14v.14h.26V75h.14v.13h.13v.14h.13v.13h.14v.13h.13v.14h.13v.13h.14v.13h.26V76h.14v.13h.13v.13h.13v.14h.14v.13H62v.13h.13v.14h.27V77h.13v.13h.14v.14h.13v.13h.13v.13h.14v.14h.13v.13h.27v.13h.13V78h.13v.13h.14v.13H64v.14h.13v.13h.14v.13h.26v.14h.14V79h.13v.13h.13v.14h.14v.13h.13v.13h.13v.14h.27v.13h.13v.13h.14V80H66v.13h.13v.13h.14v.14h.13v.13h.13v.13h.27v.14h.13V81h.14v.13h.13v.14h.13v.13h.14v.13h.26v.14h.14v.13H68v.13h.13V82h.14v.13h.13v.13h.27v.14h.13v.13h.13v.13h.14v.14h.13V83h.13v.13h.14v.14h.26v.13h.14v.13H70v.14h.13v.13h.14v.13h.13V84h.27v.13h.13v.13h.13v.14h.14v.13h.13v.13h.13v.14h.27V85h.13v.13h.14v.14H72v.13h.13v.13h.14v.14h.13v.13h.27v.13h.13V86h.13v.13h.14v.13h.13v.14h.13v.13h.27v.13h.13v.14h.14V87H74v.13h.13v.14h.14v.13h.26v.13h.14v.14h.13v.13h.13v.13h.14V88h.26v.13h.14v.13h.13v.14h.13v.13h.14v.13H76v.14h.27V89h.13v.13h.13v.14h.14v.13h.13v.13h.13v.14h.27v.13h.13v.13h.14V90h.13v.13h.13v.13H78v.14h.13v.13h.14v.13h.13v.14h.13V91h.14v.13h.26v.14h.14v.13h.13v.13h.13v.14h.14v.13h.13v.13h.27V92H80v.13h.13v.13h.14v.14h.13v.13h.27v.13h.13v.14h.13V93h.14v.13h.13v.14h.27v.13h.13v.13h.13v.14h.14v.13H82v.13h.27V94h.13v.13h.13v.13h.14v.14h.13v.13h.27v.13h.13v.14h.13V95h.14v.13h.13v.14h.27v.13H84v.13h.13v.14h.14v.13h.13v.13h.13V96h.27v.13h.13v.13h.14v.14h.13v.13h.13v.13h.27v.14h.13V97h.14v.13H86v.14h.13v.13h.27v.13h.13v.14h.14v.13h.13v.13h.13V98h.27v.13h.13v.13h.14v.14h.13v.13h.13v.13H88v.14h.13V99h.14v.13h.13v.14h.27v.13h.13v.13h.13v.14h.14v.13h.13v.13h.27V100h.13v.13h.13v.13h.14v.14H90v.13h.27v.13h.13v.14h.13V101h.14v.13h.13v.14h.27v.13h.13v.13h.13v.14h.14v.13h.26v.13h.14V102H92v.13h.13v.13h.14v.14h.26v.13h.14v.13h.13v.14h.13V103h.14v.13h.26v.14h.14v.13h.13v.13h.13v.14H94v.13h.13v.13h.14V104h.13v.13h.13v.13h.27v.14h.13v.13h.14v.13h.13v.14h.27V105h.13v.13h.13v.14h.14v.13H96v.13h.27v.14h.13v.13h.13v.13h.14V106h.26v.13h.14v.13h.13v.14h.13v.13h.14v.13h.26v.14h.14V107H98v.13h.13v.14h.27v.13h.13v.13h.14v.14h.13v.13h.27v.13h.13V108h.13v.13h.14v.13h.13v.14h.27v.13H100v.13h.13v.14h.14V109h.26v.13h.14v.14h.13v.13h.13v.13h.27v.14h.13v.13h.14v.13h.13V110h.13v.13H102v.13h.13v.14h.14v.13h.13v.13h.27v.14h.13V111h.13v.13h.14v.14h.26v.13h.14v.13h.13v.14h.13v.13H104v.13h.13V112h.14v.13h.13v.13h.27v.14h.13v.13h.13v.13h.14v.14h.26V113h.14v.13h.13v.14h.13v.13H106v.13h.13v.14h.14v.13h.13v.13h.13V114h.27v.13h.13v.13h.14v.14h.13v.13h.27v.13h.13v.14h.13V115h.14v.13h.26v.14h.14v.13h.13v.13h.13v.14h.27v.13h.13v.13h.14V116h.13v.13h.27v.13h.13v.14h.13v.13H110v.13h.13v.14h.14V117h.13v.13h.27v.14h.13v.13h.13v.13h.14v.14h.26v.13h.14v.13h.13V118h.13v.13H112v.13h.13v.14h.14v.13h.13v.13h.27v.14h.13V119h.13v.13h.14v.14h.26v.13h.14v.13h.13v.14h.13v.13H114v.13h.13V120h.14v.13h.13v.13h.27v.14h.13v.13h.13v.13h.14v.14h.26V121h.14v.13h.13v.14h.27v.13H116v.13h.13v.14h.14v.13h.26v.13h.14V122h.13v.13h.13v.13h.27v.14h.13v.13h.14v.13h.26v.14h.14V123H118v.13h.13v.14h.27v.13h.13v.13h.14v.14h.13v.13h.27v.13h.13V124h.13v.13h.27v.13h.13v.14h.14v.13H120v.13h.27v.14h.13V125h.13v.13h.14v.14h.26v.13h.14v.13h.13v.14h.13v.13h.27v.13h.13V126h.14v.13h.26v.13h.14v.14h.13v.13h.13v.13h.27v.14h.13V127h.14v.13h.26v.14h.14v.13h.13v.13h.13v.14H124v.13h.13v.13h.14V128h.26v.13h.14v.13h.13v.14h.13v.13h.27v.13h.13v.14h.14V129h.26v.13h.14v.14H126v.13h.13v.13h.27v.14h.13v.13h.14v.13h.26V130h.14v.13h.13v.13h.13v.14h.27v.13h.13v.13h.14v.14h.26V131h.14v.13h.13v.14h.13v.13h.27v.13h.13v.14h.14v.13h.26v.13h.14V132h.13v.13h.13v.13H130v.14h.13v.13h.14v.13h.26v.14h.14V133h.13v.13h.13v.14h.27v.13h.13v.13h.14v.14h.26v.13h.14v.13H132V134h.27v.13h.13v.13h.13v.14h.14v.13h.26v.13h.14v.14h.13V135h.27v.13h.13v.14h.13v.13H134v.13h.13v.14h.14v.13h.13v.13h.27V136h.13v.13h.13v.13h.27v.14h.13v.13h.14v.13h.26v.14h.14V137H136v.13h.13v.14h.27v.13h.13v.13h.14v.14h.26v.13h.14v.13h.13V138h.27v.13h.13v.13h.13v.14H138v.13h.13v.13h.14v.14h.13V139h.27v.13h.13v.14h.13v.13h.27v.13h.13v.14h.14v.13h.26v.13h.14V140H140v.13h.27v.13h.13v.14h.13v.13h.14v.13h.26v.14h.14V141h.13v.13h.27v.14h.13v.13h.13v.13H142v.14h.13v.13h.14v.13h.26V142h.14v.13h.13v.13h.27v.14h.13v.13h.13v.13h.14v.14h.26V143h.14v.13H144v.14h.27v.13h.13v.13h.13v.14h.27v.13h.13v.13h.14V144h.26v.13h.14v.13h.13v.14h.27v.13H146v.13h.13v.14h.27V145h.13v.13h.14v.14h.26v.13h.14v.13h.13v.14h.27v.13h.13v.13h.13V146H148v.13h.13v.13h.14v.14h.13v.13h.27v.13h.13v.14h.13V147h.27v.13h.13v.14h.14v.13h.26v.13h.14v.14H150v.13h.27v.13h.13V148h.13v.13h.27v.13h.13v.14h.14v.13h.26v.13h.14v.14h.13V149h.27v.13H152v.14h.13v.13h.27v.13h.13v.14h.14v.13h.26v.13h.14V150h.13v.13h.27v.13h.13v.14h.13v.13H154v.13h.13v.14h.14V151h.26v.13h.14v.14h.13v.13h.27v.13h.13v.14h.13v.13h.27v.13h.13V152h.14v.13h.26v.13h.14v.14h.13v.13h.27v.13h.13v.14h.13V153h.27v.13h.13v.14h.14v.13h.26v.13h.14v.14h.26v.13h.14v.13h.13V154h.27v.13h.13v.13h.13v.14h.27v.13h.13v.13h.14v.14h.26V155h.14v.13H160v.14h.27v.13h.13v.13h.13v.14h.27v.13h.13v.13h.14V156h.26v.13h.14v.13h.26v.14h.14v.13H162v.13h.27v.14h.13V157h.13v.13h.27v.14h.13v.13h.14v.13h.26v.14h.14v.13h.13v.13h.27V158H164v.13h.13v.13h.27v.14h.13v.13h.14v.13h.26v.14h.14V159h.26v.13h.14v.14h.13v.13h.27v.13H166v.14h.13v.13h.27v.13h.13V160h.14v.13h.26v.13h.14v.14h.26v.13h.14v.13h.13v.14h.27V161H168v.13h.13v.14h.27v.13h.13v.13h.14v.14h.26v.13h.14v.13h.13V162h.27v.13h.13v.13h.27v.14H170v.13h.13v.13h.27v.14h.13V163h.14v.13h.26v.14h.14v.13h.13v.13h.27v.14h.13v.13h.27v.13H172V164h.13v.13h.27v.13h.13v.14h.14v.13h.26v.13h.14v.14h.26V165h.14v.13h.13v.14h.27v.13H174v.13h.13v.14h.27v.13h.13v.13h.27V166h.13v.13h.14v.13h.26v.14h.14v.13h.13v.13h.27v.14H176V167h.27v.13h.13v.14h.13v.13h.27v.13h.13v.14h.14v.13h.26v.13h.14V168h.26v.13h.14v.13H178v.14h.27v.13h.13v.13h.13v.14h.27V169h.13v.13h.27v.14h.13v.13h.14v.13h.26v.14h.14v.13h.26v.13h.14V170h.13v.13h.27v.13h.13v.14h.27v.13h.13v.13h.13v.14h.27V171h.13v.13h.14v.14h.26v.13h.14v.13h.26v.14h.14v.13h.13v.13h.27V172h.13v.13h.27v.13h.13v.14h.13v.13H184v.13h.13v.14h.14V173h.26v.13h.14v.14h.26v.13h.14v.13h.13v.14h.27v.13h.13v.13h.27V174H186v.13h.13v.13h.27v.14h.13v.13h.27v.13h.13v.14h.14V175h.26v.13h.14v.14h.26v.13h.14v.13H188v.14h.27v.13h.13v.13h.27V176h.13v.13h.27v.13h.13v.14h.13v.13h.27v.13h.13v.14H190V177h.13v.13h.14v.14h.26v.13h.14v.13h.26v.14h.14v.13h.13v.13h.27V178h.13v.13h.27v.13H192v.14h.13v.13h.27v.13h.13v.14h.27V179h.13v.13h.14v.14h.26v.13h.14v.13h.26v.14h.14v.13h.26v.13h.14V180h.13v.13h.27v.13h.13v.14h.27v.13h.13v.13h.13v.14h.27V181h.13v.13H196v.14h.13v.13h.27v.13h.13v.14h.14v.13h.26v.13h.14V182h.26v.13h.14v.13h.13v.14h.27v.13H198v.13h.27v.14h.13V183h.27v.13h.13v.14h.13v.13h.27v.13h.13v.14h.27v.13h.13v.13H200V184h.13v.13h.14v.13h.26v.14h.14v.13h.26v.13h.14v.14h.26V185h.14v.13h.13v.14h.27v.13H202v.13h.27v.14h.13v.13h.27v.13h.13V186h.27v.13h.13v.13h.13v.14h.27v.13h.13v.13H204v.14h.13V187h.27v.13h.13v.14h.14v.13h.26v.13h.14v.14h.26v.13h.14v.13h.26V188h.14v.13h.26v.13h.14v.14h.26v.13h.14v.13h.13v.14h.27V189h.13v.13h.27v.14h.13v.13h.27v.13H208v.14h.27v.13h.13v.13h.13V190h.27v.13h.13v.13h.27v.14h.13v.13h.27v.13h.13v.14H210V191h.13v.13h.27v.14h.13v.13h.14v.13h.26v.14h.14v.13h.26v.13h.14V192h.26v.13h.14v.13h.26v.14h.14v.13h.26v.13h.14v.14h.26V193h.14v.13h.13v.14h.27v.13h.13v.13h.27v.14H214v.13h.27v.13h.13V194h.27v.13h.13v.13h.27v.14h.13v.13h.27v.13h.13v.14h.27V195H216v.13h.27v.14h.13v.13h.13v.13h.27v.14h.13v.13h.27v.13h.13V196h.27v.13h.13v.13H218v.14h.13v.13h.27v.13h.13v.14h.27V197h.13v.13h.27v.14h.13v.13h.27v.13h.13v.14H220v.13h.13v.13h.27V198h.13v.13h.27v.13h.13v.14h.27v.13h.13v.13h.27v.14h.13V199H222v.13h.13v.14h.27v.13h.13v.13h.27v.14h.13v.13h.27v.13h.13V200h.27v.13h.13v.13H224v.14h.13v.13h.27v.13h.13v.14h.27V201h.13v.13h.27v.14h.13v.13h.27v.13h.13v.14H226v.13h.13v.13h.27V202h.13v.13h.27v.13h.13v.14h.27v.13h.13v.13h.27v.14h.13V203H228v.13h.27v.14h.13v.13h.27v.13h.13v.14h.27v.13h.13v.13h.27V204h.13v.13h.27v.13H230v.14h.27v.13h.13v.13h.27v.14h.13V205h.27v.13h.26v.14h.14v.13h.26v.13h.14v.14h.26v.13h.14v.13h.26V206h.14v.13h.26v.13h.14v.14h.26v.13h.27v.13h.13v.14H234V207h.13v.13h.27v.14h.13v.13h.27v.13h.27v.14h.13v.13h.27v.13h.13V208h.27v.13H236v.13h.27v.14h.26v.13h.14v.13h.26v.14h.14V209h.26v.13h.27v.14h.13v.13H238v.13h.13v.14h.27v.13h.13v.13h.27V210h.27v.13h.13v.13h.27v.14h.13v.13h.27v.13h.26v.14h.14V211h.26v.13h.27v.14h.13v.13h.27v.13h.13v.14h.27v.13h.27v.13H242V212h.27v.13h.26v.13h.14v.14h.26v.13h.27v.13h.13v.14h.27V213h.27v.13H244v.14h.27v.13h.13v.13h.27v.14h.26v.13h.14v.13h.26V214h.14v-.14h-.14v-.13h-.13v-.13h-.13v-.27h-.14v-.13h-.13v-.14h-.13V213h-.14v-.13h-.13v-.14h-.13v-.13h-.14v-.13H244v-.14h-.13v-.13h-.14V212h-.13v-.14h-.13v-.13h-.14v-.13h-.13v-.14h-.13v-.13h-.14v-.27h-.13V211h-.13v-.13h-.14v-.14h-.13v-.13h-.13v-.13h-.14v-.14H242v-.13h-.13V210h-.14v-.14h-.13v-.13h-.13v-.13h-.14v-.14h-.13v-.13h-.13v-.13h-.14V209h-.13v-.13h-.13v-.14h-.14v-.13h-.13v-.13h-.13v-.14h-.14v-.13H240V208h-.13v-.14h-.14v-.13h-.13v-.13h-.13v-.14h-.14v-.13h-.13v-.13h-.13v-.14h-.14v-.26h-.13v-.14h-.13v-.13h-.14v-.13h-.13v-.14h-.13v-.13h-.14V206H238v-.14h-.13v-.13h-.14v-.13h-.13v-.14h-.13v-.26h-.14v-.14h-.13V205h-.13v-.13h-.14v-.14h-.13v-.13h-.13v-.13h-.14v-.14h-.13v-.13h-.13V204h-.14v-.14H236v-.13h-.13v-.27h-.14v-.13h-.13v-.13h-.13v-.14h-.14V203h-.13v-.13h-.13v-.14h-.14v-.13h-.13v-.13h-.13v-.14h-.14v-.13h-.13V202h-.13v-.27h-.14v-.13H234v-.14h-.13v-.13h-.14v-.13h-.13v-.14h-.13V201h-.14v-.13h-.13v-.14h-.13v-.13h-.14v-.13h-.13v-.27h-.13V200h-.14v-.14h-.13v-.13h-.13v-.13h-.14v-.14H232v-.13h-.13v-.13h-.14v-.14h-.13V199h-.13v-.13h-.14v-.27h-.13v-.13h-.13v-.14h-.14v-.13h-.13V198h-.13v-.14h-.14v-.13h-.13v-.13h-.13v-.14h-.14v-.26H230v-.14h-.13V197h-.14v-.13h-.13v-.14h-.13v-.13h-.14v-.13h-.13v-.14h-.13v-.13h-.14v-.27h-.13v-.13h-.13v-.13h-.14v-.14h-.13v-.13h-.13v-.13h-.14v-.14H228V195h-.13v-.13h-.14v-.14h-.13v-.26h-.13v-.14h-.14v-.13h-.13V194h-.13v-.14h-.14v-.13h-.13v-.13h-.13v-.14h-.14v-.13h-.13v-.27h-.13V193h-.14v-.13H226v-.14h-.13v-.13h-.14v-.13h-.13v-.14h-.13v-.13h-.14V192h-.13v-.27h-.13v-.13h-.14v-.14h-.13v-.13h-.13v-.13h-.14v-.14h-.13V191h-.13v-.13h-.14v-.27H224v-.13h-.13v-.14h-.14v-.13h-.13V190h-.13v-.14h-.14v-.13h-.13v-.13h-.13v-.27h-.14v-.13h-.13v-.14h-.13V189h-.14v-.13h-.13v-.14h-.13v-.13h-.14v-.13H222v-.27h-.13V188h-.14v-.14h-.13v-.13h-.13v-.13h-.14v-.14h-.13v-.13h-.13v-.27h-.14V187h-.13v-.13h-.13v-.14h-.14v-.13h-.13v-.13h-.13v-.14h-.14v-.13H220v-.27h-.13v-.13h-.14v-.13h-.13v-.14h-.13v-.13h-.14v-.13h-.13v-.14h-.13V185h-.14v-.27h-.13v-.13h-.13v-.13h-.14v-.14h-.13v-.13h-.13V184h-.14v-.14H218v-.26h-.13v-.14h-.14v-.13h-.13v-.13h-.13v-.14h-.14V183h-.13v-.13h-.13v-.27h-.14v-.13h-.13v-.14h-.13v-.13h-.14V182h-.13v-.14h-.13v-.13h-.14v-.27H216v-.13h-.13v-.13h-.14v-.14h-.13V181h-.13v-.13h-.14v-.14h-.13v-.26h-.13v-.14h-.14v-.13h-.13V180h-.13v-.14h-.14v-.13h-.13v-.27h-.13v-.13h-.14v-.13H214v-.14h-.13V179h-.14v-.13h-.13v-.14h-.13v-.26h-.14v-.14h-.13v-.13h-.13V178h-.14v-.14h-.13v-.13h-.13v-.13h-.14v-.27h-.13v-.13h-.13v-.14h-.14V177H212v-.13h-.13v-.14h-.14v-.13h-.13v-.27h-.13v-.13h-.14V176h-.13v-.14h-.13v-.13h-.14v-.13h-.13v-.27h-.13v-.13h-.14v-.14h-.13V175h-.13v-.13h-.14v-.14H210v-.26h-.13v-.14h-.14v-.13h-.13V174h-.13v-.14h-.14v-.13h-.13v-.27h-.13v-.13h-.14v-.13h-.13v-.14h-.13V173h-.14v-.13h-.13v-.27h-.13v-.13h-.14v-.14H208v-.13h-.13V172h-.14v-.14h-.13v-.26h-.13v-.14h-.14v-.13h-.13v-.13h-.13v-.14h-.14V171h-.13v-.27h-.13v-.13h-.14v-.13h-.13v-.14h-.13v-.13h-.14V170H206v-.27h-.13v-.13h-.14v-.14h-.13v-.13h-.13v-.13h-.14v-.14h-.13v-.26h-.13v-.14h-.14v-.13h-.13v-.13h-.13v-.14h-.14V168h-.13v-.14h-.13v-.13h-.14v-.13H204v-.14h-.13v-.26h-.14v-.14h-.13V167h-.13v-.13h-.14v-.14h-.13v-.13h-.13v-.27h-.14v-.13h-.13V166h-.13v-.14h-.14v-.13h-.13v-.27h-.13v-.13h-.14v-.13H202v-.14h-.13V165h-.14v-.13h-.13v-.27h-.13v-.13h-.14v-.14h-.13v-.13h-.13V164h-.14v-.27h-.13v-.13h-.13v-.14h-.14v-.13h-.13v-.13h-.13v-.14h-.14v-.26H200v-.14h-.13v-.13h-.14v-.13h-.13v-.14h-.13V162h-.14v-.14h-.13v-.13h-.13v-.13h-.14v-.14h-.13v-.26h-.13v-.14h-.14V161h-.13v-.13h-.13v-.14h-.14v-.26H198v-.14h-.13v-.13h-.14V160h-.13v-.14h-.13v-.26h-.14v-.14h-.13v-.13h-.13v-.13h-.14v-.14h-.13v-.26h-.13v-.14h-.14v-.13h-.13v-.13h-.13v-.14h-.14V158H196v-.14h-.13v-.13h-.14v-.13h-.13v-.14h-.13v-.26h-.14v-.14h-.13V157h-.13v-.13h-.14v-.14h-.13v-.26h-.13v-.14h-.14v-.13h-.13V156h-.13v-.14h-.14v-.26H194v-.14h-.13v-.13h-.14v-.13h-.13v-.14h-.13v-.26h-.14v-.14h-.13v-.13h-.13v-.13h-.14v-.14h-.13V154h-.13v-.14h-.14v-.13h-.13v-.13h-.13v-.14h-.14v-.26H192v-.14h-.13V153h-.14v-.13h-.13v-.27h-.13v-.13h-.14v-.14h-.13v-.13h-.13V152h-.14v-.27h-.13v-.13h-.13v-.14h-.14v-.13h-.13v-.27h-.13V151h-.14v-.13H190v-.14h-.13v-.13h-.14v-.27h-.13v-.13h-.13V150h-.14v-.14h-.13v-.13h-.13v-.27h-.14v-.13h-.13v-.13h-.13v-.14h-.14v-.26h-.13v-.14h-.13v-.13h-.14v-.13H188v-.14h-.13V148h-.14v-.14h-.13v-.13h-.13v-.13h-.14v-.27h-.13v-.13h-.13v-.14h-.14V147h-.13v-.13h-.13v-.27h-.14v-.13h-.13v-.14h-.13v-.13h-.14v-.27H186v-.13h-.13v-.13h-.14v-.14h-.13v-.13h-.13v-.27h-.14V145h-.13v-.13h-.13v-.14h-.14v-.26h-.13v-.14h-.13v-.13h-.14V144h-.13v-.27h-.13v-.13h-.14v-.14H184v-.13h-.13v-.27h-.14V143h-.13v-.13h-.13v-.14h-.14v-.13h-.13v-.27h-.13v-.13h-.14V142h-.13v-.14h-.13v-.26h-.14v-.14h-.13v-.13h-.13v-.13h-.14V141H182v-.13h-.13v-.14h-.14v-.13h-.13v-.27h-.13v-.13h-.14V140h-.13v-.14h-.13v-.13h-.14v-.27h-.13v-.13h-.13v-.13h-.14v-.14h-.13v-.26h-.13v-.14h-.14v-.13H180v-.13h-.13v-.27h-.14V138h-.13v-.14h-.13v-.13h-.14v-.27h-.13v-.13h-.13v-.13h-.14v-.14h-.13v-.26h-.13v-.14h-.14v-.13h-.13v-.13h-.13v-.27h-.14V136H178v-.14h-.13v-.13h-.14v-.27h-.13v-.13h-.13v-.13h-.14v-.14h-.13v-.26h-.13v-.14h-.14v-.13h-.13v-.13h-.13v-.27h-.14V134h-.13v-.14h-.13v-.13h-.14v-.27H176v-.13h-.13v-.13h-.14v-.14h-.13v-.26h-.13v-.14h-.14v-.13h-.13v-.13h-.13v-.27h-.14V132h-.13v-.14h-.13v-.13h-.14v-.27h-.13v-.13h-.13v-.13h-.14v-.14H174v-.26h-.13v-.14h-.14v-.13h-.13v-.13h-.13v-.27h-.14V130h-.13v-.14h-.13v-.26h-.14v-.14h-.13v-.13h-.13v-.13h-.14V129h-.13v-.13h-.13v-.14h-.14v-.13H172v-.27h-.13v-.13h-.14V128h-.13v-.14h-.13v-.26h-.14v-.14h-.13v-.13h-.13v-.13h-.14V127h-.13v-.13h-.13v-.14h-.14v-.26h-.13v-.14h-.13v-.13h-.14V126H170v-.27h-.13v-.13h-.14v-.14h-.13v-.13h-.13v-.27h-.14V125h-.13v-.13h-.13v-.14h-.14v-.26h-.13v-.14h-.13v-.13h-.14v-.27h-.13v-.13h-.13v-.13h-.14v-.14H168v-.26h-.13v-.14h-.14V123h-.13v-.13h-.13v-.27h-.14v-.13h-.13v-.14h-.13V122h-.14v-.14h-.13v-.13h-.13v-.13h-.14v-.27h-.13v-.13h-.13v-.14h-.14v-.26H166v-.14h-.13v-.13h-.14v-.13h-.13v-.27h-.13V120h-.14v-.14h-.13v-.26h-.13v-.14h-.14v-.13h-.13v-.13h-.13V119h-.14v-.13h-.13v-.14h-.13v-.26h-.14v-.14H164v-.13h-.13V118h-.14v-.27h-.13v-.13h-.13v-.14h-.14v-.13h-.13v-.27h-.13V117h-.14v-.13h-.13v-.27h-.13v-.13h-.14v-.14h-.13v-.13h-.13v-.27h-.14v-.13H162v-.13h-.13v-.27h-.14v-.13h-.13v-.14h-.13v-.26h-.14v-.14h-.13v-.13h-.13v-.13h-.14v-.27h-.13V114h-.13v-.14h-.14v-.26h-.13v-.14h-.13v-.13h-.14v-.13H160V113h-.13v-.13h-.14v-.14h-.13v-.26h-.13v-.14h-.14v-.13h-.13v-.27h-.13v-.13h-.14v-.13h-.13v-.14h-.13v-.26h-.14v-.14h-.13V111h-.13v-.27h-.14v-.13H158v-.13h-.13v-.27h-.14V110h-.13v-.14h-.13v-.13h-.14v-.27h-.13v-.13h-.13v-.13h-.14V109h-.13v-.13h-.13v-.14h-.14v-.26h-.13v-.14h-.13v-.13h-.14V108H156v-.27h-.13v-.13h-.14v-.14h-.13v-.26h-.13v-.14h-.14V107h-.13v-.27h-.13v-.13h-.14v-.13h-.13v-.27h-.13V106h-.14v-.14h-.13v-.13h-.13v-.27h-.14v-.13H154v-.13h-.13V105h-.14v-.13h-.13v-.14h-.13v-.26h-.14v-.14h-.13v-.13h-.13v-.27h-.14v-.13h-.13v-.13h-.13v-.27h-.14v-.13h-.13v-.14h-.13V103h-.14v-.27H152v-.13h-.13v-.13h-.14v-.27h-.13V102h-.13v-.14h-.14v-.26h-.13v-.14h-.13v-.13h-.14v-.27h-.13V101h-.13v-.13h-.14v-.27h-.13v-.13h-.13v-.14h-.14V100H150v-.14h-.13v-.13h-.14v-.27h-.13v-.13h-.13v-.13h-.14V99h-.13v-.13h-.13v-.14h-.14v-.26h-.13v-.14h-.13v-.13h-.14V98h-.13v-.27h-.13v-.13h-.14v-.14H148v-.26h-.13v-.14h-.14V97h-.13v-.27h-.13v-.13h-.14v-.13h-.13v-.27h-.13V96h-.14v-.14h-.13v-.26h-.13v-.14h-.14v-.13h-.13v-.27h-.13V95h-.14v-.13H146v-.27h-.13v-.13h-.14v-.14h-.13V94h-.13v-.14h-.14v-.13h-.13v-.27h-.13v-.13h-.14v-.13h-.13V93h-.13v-.13h-.14v-.14h-.13v-.26h-.13v-.14h-.14v-.13H144v-.27h-.13v-.13h-.14v-.13h-.13v-.27h-.13v-.13h-.14v-.14h-.13v-.26h-.13v-.14h-.14v-.13h-.13v-.27h-.13v-.13h-.14V90h-.13v-.27h-.13v-.13h-.14v-.14H142v-.26h-.13v-.14h-.14v-.26h-.13v-.14h-.13v-.13h-.14v-.27h-.13v-.13h-.13V88h-.14v-.27h-.13v-.13h-.13v-.14h-.14v-.26h-.13v-.14h-.13V87h-.14v-.27H140v-.13h-.13v-.13h-.14v-.27h-.13V86h-.13v-.14h-.14v-.26h-.13v-.14h-.13v-.26h-.14v-.14h-.13V85h-.13v-.27h-.14v-.13h-.13v-.13h-.13v-.27h-.14V84H138v-.14h-.13v-.26h-.14v-.14h-.13v-.13h-.13v-.27h-.14V83h-.13v-.13h-.13v-.27h-.14v-.13h-.13v-.27h-.13V82h-.14v-.14h-.13v-.26h-.13v-.14h-.14v-.13H136v-.27h-.13V81h-.14v-.13h-.13v-.27h-.13v-.13h-.14v-.27h-.13V80h-.13v-.14h-.14v-.26h-.13v-.14h-.13v-.13h-.14v-.27h-.13V79h-.13v-.13h-.14v-.27H134v-.13h-.13v-.27h-.14V78h-.13v-.14h-.13v-.26h-.14v-.14h-.13v-.13h-.13v-.27h-.14V77h-.13v-.27h-.13v-.13h-.14v-.13h-.13v-.27h-.13V76h-.14v-.14H132v-.26h-.13v-.14h-.14v-.26h-.13v-.14h-.13V75h-.14v-.27h-.13v-.13h-.13v-.13h-.14v-.27h-.13V74h-.13v-.27h-.14v-.13h-.13v-.14h-.13v-.26h-.14v-.14H130V73h-.13v-.27h-.14v-.13h-.13v-.27h-.13v-.13h-.14V72h-.13v-.27h-.13v-.13h-.14v-.27h-.13v-.13h-.13v-.14h-.14v-.26h-.13v-.14h-.13v-.13h-.14v-.27H128v-.13h-.13v-.27h-.14v-.13h-.13v-.13h-.13v-.27h-.14v-.13h-.13V69h-.13v-.13h-.14v-.14h-.13v-.26h-.13v-.14h-.14V68h-.13v-.14h-.13v-.13h-.14v-.27H126v-.13h-.13v-.13h-.14V67h-.13v-.13h-.13v-.27h-.14v-.13h-.13v-.14h-.13V66h-.14v-.14h-.13v-.26h-.13v-.14h-.14v-.13h-.13v-.27h-.13V65h-.14v-.27H124v-.13h-.13v-.27h-.14v-.13h-.13V64h-.13v-.27h-.14v-.13h-.13v-.27h-.13v-.13h-.14v-.14h-.13v-.26h-.13v-.14h-.14v-.26h-.13v-.14h-.13v-.13h-.14v-.27H122v-.13h-.13v-.27h-.14v-.13h-.13v-.13h-.13V61h-.14v-.13h-.13v-.27h-.13v-.13h-.14v-.27h-.13V60h-.13v-.14h-.14v-.26h-.13v-.14h-.13v-.26h-.14v-.14H120V59h-.13v-.27h-.14v-.13h-.13v-.27h-.13v-.13h-.14v-.27h-.13v-.13h-.13v-.13h-.14v-.27h-.13v-.13h-.13V57h-.14v-.13h-.13v-.27h-.13v-.13h-.14v-.14H118V56h-.13v-.14h-.14v-.26h-.13v-.14h-.13v-.26h-.14v-.14h-.13V55h-.13v-.27h-.14v-.13h-.13v-.27h-.13v-.13h-.14v-.27h-.13v-.13h-.13v-.27h-.14v-.13H116v-.13h-.13V53h-.14v-.13h-.13v-.27h-.13v-.13h-.14v-.27h-.13V52h-.13v-.27h-.14v-.13h-.13v-.14h-.13v-.26h-.14v-.14h-.13v-.26h-.13v-.14h-.14v-.26H114v-.14h-.13V50h-.14v-.14h-.13v-.26h-.13v-.14h-.14v-.26h-.13v-.14h-.13V49h-.14v-.27h-.13v-.13h-.13v-.27h-.14v-.13h-.13v-.27h-.13v-.13h-.14v-.27H112v-.13h-.13v-.27h-.14V47h-.13v-.27h-.13v-.13h-.14v-.27h-.13v-.13h-.13v-.27h-.14v-.13h-.13v-.27h-.13v-.13h-.14v-.27h-.13V45h-.13v-.27h-.14v-.13H110v-.27h-.13v-.13h-.14v-.27h-.13v-.13h-.13v-.27h-.14v-.13h-.13v-.27h-.13V43h-.14v-.27h-.13v-.13h-.13v-.27h-.14v-.13h-.13v-.27h-.13v-.26h-.14v-.14H108v-.26h-.13v-.14h-.14v-.26h-.13v-.27h-.13v-.13h-.14v-.27h-.13v-.27h-.13v-.26h-.14v-.27h.27v.13h.13v.14h.14v.13h.13v.13h.13V40h.14v.13H108v.13h.13v.14h.14v.13h.13v.13h.13v.14h.14V41h.13v.13h.13v.14h.14v.13h.13v.13h.13v.14h.14v.13h.13v.13h.13V42h.14v.13H110v.13h.13v.14h.14v.13h.13v.13h.13v.14h.14V43h.13v.13h.13v.14h.14v.13h.13v.13h.13v.14h.14v.13h.13v.13h.13V44h.14v.13H112v.13h.13v.14h.14v.13h.13v.13h.13v.14h.14V45h.13v.13h.13v.14h.14v.13h.13v.13h.13v.14h.14v.13h.13v.13h.13V46h.14v.13H114v.13h.13v.14h.14v.13h.13v.13h.13v.14h.14V47h.13v.13h.13v.14h.14v.13h.13v.13h.13v.14h.14v.13h.13v.13h.13V48h.14v.13H116v.13h.13v.14h.14v.13h.13v.13h.13v.14h.14V49h.13v.13h.13v.14h.14v.13h.13v.13h.13v.14h.14v.13h.13v.13h.13V50h.14v.13H118v.13h.13v.14h.14v.13h.13v.13h.13v.14h.14V51h.13v.13h.13v.14h.14v.13h.13v.13h.13v.14h.14v.13h.13v.13h.13V52h.14v.13H120v.13h.13v.14h.14v.13h.13v.13h.13v.14h.14V53h.13v.13h.13v.14h.14v.13h.13v.13h.13v.14h.14v.13h.13v.13h.13V54h.14v.13H122v.13h.13v.14h.14v.13h.13v.13h.27v.14h.13V55h.13v.13h.14v.14h.13v.13h.13v.13h.14v.14h.13v.13h.13v.13h.14V56H124v.13h.13v.13h.14v.14h.13v.13h.13v.13h.14v.14h.13V57h.13v.13h.14v.14h.13v.13h.13v.13h.14v.14h.13v.13h.13v.13h.14V58H126v.13h.13v.13h.14v.14h.13v.13h.13v.13h.14v.14h.13V59h.13v.13h.14v.14h.13v.13h.13v.13h.14v.14h.13v.13h.13v.13h.14V60H128v.13h.13v.13h.14v.14h.13v.13h.13v.13h.14v.14h.13V61h.13v.13h.14v.14h.13v.13h.13v.13h.27v.14h.13v.13h.14v.13H130V62h.13v.13h.14v.13h.13v.14h.13v.13h.14v.13h.13v.14h.13V63h.14v.13h.13v.14h.13v.13h.14v.13h.13v.14h.13v.13h.14v.13H132V64h.13v.13h.14v.13h.13v.14h.13v.13h.14v.13h.13v.14h.13V65h.27v.13h.13v.14h.14v.13h.13v.13h.13v.14h.14v.13H134v.13h.13V66h.14v.13h.13v.13h.13v.14h.14v.13h.13v.13h.13v.14h.14V67h.13v.13h.13v.14h.14v.13h.13v.13h.13v.14h.14v.13H136v.13h.13V68h.14v.13h.13v.13h.13v.14h.27v.13h.13v.13h.14v.14h.13V69h.13v.13h.14v.14h.13v.13h.13v.13h.14v.14H138v.13h.13v.13h.14V70h.13v.13h.13v.13h.14v.14h.13v.13h.13v.13h.14v.14h.13V71h.13v.13h.14v.14h.13v.13h.13v.13h.14v.14H140v.13h.27v.13h.13V72h.13v.13h.14v.13h.13v.14h.13v.13h.14v.13h.13v.14h.13V73h.14v.13h.13v.14h.13v.13h.14v.13H142v.14h.13v.13h.14v.13h.13V74h.27v.13h.13v.13h.13v.14h.14v.13h.13v.13h.13v.14h.14V75h.13v.13h.13v.14h.14v.13H144v.13h.13v.14h.14v.13h.13v.13h.13V76h.14v.13h.13v.13h.27v.14h.13v.13h.13v.13h.14v.14h.13V77h.13v.13h.14v.14H146v.13h.13v.13h.14v.14h.13v.13h.13v.13h.14V78h.13v.13h.13v.13h.14v.14h.13v.13h.27v.13h.13v.14h.13V79h.14v.13H148v.14h.13v.13h.14v.13h.13v.14h.13v.13h.14v.13h.13V80h.13v.13h.14v.13h.13v.14h.13v.13h.14v.13h.13v.14h.27V81H150v.13h.13v.14h.14v.13h.13v.13h.13v.14h.14v.13h.13v.13h.13V82h.14v.13h.13v.13h.13v.14h.14v.13h.13v.13h.27v.14H152V83h.13v.13h.14v.14h.13v.13h.13v.13h.14v.14h.13v.13h.13v.13h.14V84h.13v.13h.13v.13h.14v.14h.26v.13h.14v.13H154v.14h.13V85h.14v.13h.13v.14h.13v.13h.14v.13h.13v.14h.13v.13h.14v.13h.13V86h.13v.13h.27v.13h.13v.14h.14v.13H156v.13h.13v.14h.14V87h.13v.13h.13v.14h.14v.13h.13v.13h.13v.14h.14v.13h.26v.13h.14V88h.13v.13h.13v.13h.14v.14H158v.13h.13v.13h.14v.14h.13V89h.13v.13h.14v.14h.13v.13h.13v.13h.27v.14h.13v.13h.14v.13h.13V90h.13v.13h.14v.13H160v.14h.13v.13h.14v.13h.13v.14h.13V91h.14v.13h.13v.14h.27v.13h.13v.13h.13v.14h.14v.13h.13v.13h.13V92h.14v.13H162v.13h.13v.14h.14v.13h.26v.13h.14v.14h.13V93h.13v.13h.14v.14h.13v.13h.13v.13h.14v.14h.13v.13h.13v.13H164V94h.13v.13h.14v.13h.13v.14h.13v.13h.14v.13h.13v.14h.13V95h.14v.13h.13v.14h.27v.13h.13v.13h.13v.14h.14v.13H166v.13h.13V96h.14v.13h.13v.13h.13v.14h.14v.13h.26v.13h.14v.14h.13V97h.13v.13h.14v.14h.13v.13h.13v.13h.14v.14H168v.13h.13v.13h.27V98h.13v.13h.14v.13h.13v.14h.13v.13h.14v.13h.13v.14h.13V99h.14v.13h.13v.14h.27v.13H170v.13h.13v.14h.14v.13h.13v.13h.13V100h.14v.13h.13v.13h.13v.14h.14v.13h.26v.13h.14v.14h.13V101h.13v.13h.14v.14H172v.13h.13v.13h.14v.14h.26v.13h.14v.13h.13V102h.13v.13h.14v.13h.13v.14h.13v.13h.14v.13h.13v.14h.27V103H174v.13h.13v.14h.14v.13h.13v.13h.13v.14h.14v.13h.13v.13h.27V104h.13v.13h.13v.13h.14v.14h.13v.13h.13v.13h.14v.14H176V105h.27v.13h.13v.14h.13v.13h.14v.13h.13v.14h.13v.13h.14v.13h.13V106h.13v.13h.27v.13h.13v.14h.14v.13H178v.13h.13v.14h.14V107h.13v.13h.13v.14h.27v.13h.13v.13h.14v.14h.13v.13h.13v.13h.14V108h.13v.13h.13v.13H180v.14h.13v.13h.14v.13h.13v.14h.13V109h.14v.13h.13v.14h.13v.13h.14v.13h.26v.14h.14v.13h.13v.13h.13V110h.14v.13H182v.13h.13v.14h.27v.13h.13v.13h.14v.14h.13V111h.13v.13h.14v.14h.13v.13h.27v.13h.13v.14h.13v.13h.14v.13H184V112h.13v.13h.14v.13h.26v.14h.14v.13h.13v.13h.13v.14h.14V113h.13v.13h.13v.14h.27v.13h.13v.13h.14v.14H186v.13h.13v.13h.14V114h.13v.13h.27v.13h.13v.14h.13v.13h.14v.13h.13v.14h.13V115h.14v.13h.26v.14h.14v.13H188v.13h.13v.14h.14v.13h.13v.13h.13V116h.27v.13h.13v.13h.14v.14h.13v.13h.13v.13h.14v.14h.13V117h.13v.13H190v.14h.13v.13h.14v.13h.13v.14h.13v.13h.14v.13h.13V118h.27v.13h.13v.13h.13v.14h.14v.13h.13v.13h.13v.14H192V119h.13v.13h.14v.14h.13v.13h.13v.13h.14v.14h.26v.13h.14v.13h.13V120h.13v.13h.14v.13h.13v.14h.13v.13H194v.13h.13v.14h.14V121h.13v.13h.13v.14h.14v.13h.26v.13h.14v.14h.13v.13h.13v.13h.14V122h.13v.13h.27v.13H196v.14h.13v.13h.14v.13h.13v.14h.13V123h.27v.13h.13v.14h.14v.13h.13v.13h.13v.14h.14v.13h.26v.13h.14V124H198v.13h.13v.13h.14v.14h.13v.13h.13v.13h.27v.14h.13V125h.14v.13h.13v.14h.13v.13h.14v.13h.26v.14h.14v.13H200v.13h.13V126h.14v.13h.13v.13h.27v.14h.13v.13h.13v.13h.14v.14h.13V127h.13v.13h.27v.14h.13v.13h.14v.13H202v.14h.13v.13h.27v.13h.13V128h.14v.13h.13v.13h.13v.14h.14v.13h.26v.13h.14v.14h.13V129h.13v.13h.14v.14h.26v.13h.14v.13h.13v.14h.13v.13h.14v.13h.13V130h.27v.13h.13v.13h.13v.14h.14v.13h.13v.13h.27v.14H206V131h.13v.13h.14v.14h.13v.13h.13v.13h.27v.14h.13v.13h.14v.13h.13V132h.13v.13h.27v.13h.13v.14h.14v.13H208v.13h.13v.14h.14V133h.26v.13h.14v.14h.13v.13h.13v.13h.14v.14h.26v.13h.14v.13h.13V134h.13v.13h.14v.13H210v.14h.27v.13h.13v.13h.13v.14h.14V135h.13v.13h.27v.14h.13v.13h.13v.13h.14v.14h.13v.13h.27v.13H212V136h.13v.13h.14v.13h.13v.14h.27v.13h.13v.13h.13v.14h.14V137h.13v.13h.27v.14h.13v.13h.13v.13h.14v.14H214v.13h.27v.13h.13V138h.13v.13h.14v.13h.13v.14h.27v.13h.13v.13h.13v.14h.14V139h.26v.13h.14v.14H216v.13h.13v.13h.14v.14h.26v.13h.14v.13h.13V140h.13v.13h.14v.13h.26v.14h.14v.13h.13v.13h.13v.14h.14V141h.26v.13h.14v.14h.13v.13h.13v.13h.14v.14h.26v.13h.14v.13h.13V142h.13v.13h.14v.13h.26v.14h.14v.13H220v.13h.13v.14h.14V143h.26v.13h.14v.14h.13v.13h.13v.13h.27v.14h.13v.13h.14v.13h.13V144h.13v.13H222v.13h.13v.14h.14v.13h.13v.13h.27v.14h.13V145h.13v.13h.14v.14h.13v.13h.27v.13h.13v.14h.13v.13h.14v.13h.26V146h.14v.13h.13v.13h.13v.14h.14v.13h.26v.13h.14v.14h.13V147h.13v.13h.27v.14h.13v.13h.14v.13H226v.14h.13v.13h.27v.13h.13V148h.14v.13h.13v.13h.27v.14h.13v.13h.13v.13h.14v.14h.13V149h.27v.13H228v.14h.13v.13h.14v.13h.26v.14h.14v.13h.13v.13h.13V150h.27v.13h.13v.13h.14v.14h.13v.13h.27v.13H230v.14h.13V151h.14v.13h.26v.14h.14v.13h.13v.13h.13v.14h.14v.13h.26v.13h.14V152h.13v.13h.13v.13H232v.14h.13v.13h.14v.13h.13v.14h.27V153h.13v.13h.13v.14h.14v.13h.26v.13h.14v.14h.13v.13h.13v.13H234V154h.13v.13h.14v.13h.13v.14h.27v.13h.13v.13h.13v.14h.14V155h.26v.13h.14v.14h.13v.13h.13v.13H236v.14h.13v.13h.14v.13h.13V156h.27v.13h.13v.13h.13v.14h.14v.13h.13v.13h.27v.14h.13V157h.13v.13H238v.14h.13v.13h.14v.13h.13v.14h.27v.13h.13v.13h.13V158h.14v.13h.26v.13h.14v.14h.13v.13h.13v.13H240v.14h.13V159h.14v.13h.13v.14h.27v.13h.13v.13h.13v.14h.27v.13h.13v.13h.14V160h.13v.13h.27v.13H242v.14h.13v.13h.14v.13h.26v.14h.14V161h.13v.13h.13v.14h.27v.13h.13v.13h.14v.14h.13v.13h.27v.13H244V162h.13v.13h.27v.13h.13v.14h.14v.13h.13v.13h.27v.14h.13V163h.13v.13h.14v.14h.26v.13h.14v.13H246v.14h.13v.13h.27v.13h.13V164h.14v.13h.26v.13h.14v.14h.13v.13h.13v.13h.27v.14h.13V165h.14v.13h.26v.14h.14v.13h.13v.13h.13v.14h.27v.13h.13v.13h.14V166h.26v.13h.14v.13h.13v.14h.13v.13H250v.13h.13v.14h.14V167h.26v.13h.14v.14h.13v.13h.13v.13h.27v.14h.13v.13h.14v.13h.26V168h.14v.13H252v.13h.13v.14h.27v.13h.13v.13h.14v.14h.26V169h.14v.13h.13v.14h.13v.13h.27v.13h.13v.14h.14v.13h.26v.13h.14V170h.13v.13h.13v.13h.27v.14h.13v.13h.14v.13h.26v.14h.14V171h.13v.13h.27v.14H256v.13h.13v.13h.14v.14h.26v.13h.14v.13h.13V172h.27v.13h.13v.13h.13v.14h.27v.13h.13v.13h.14v.14h.26V173h.14v.13h.13v.14h.13v.13h.27v.13h.13v.14h.14v.13h.26v.13h.14V174h.13v.13h.27v.13H260v.14h.13v.13h.14v.13h.26v.14h.14V175h.13v.13h.27v.14h.13v.13h.13v.13h.27v.14h.13v.13h.14v.13h.26V176h.14v.13h.13v.13h.13v.14h.27v.13h.13v.13h.14v.14h.26V177h.14v.13h.13v.14h.27v.13H264v.13h.13v.14h.27v.13h.13v.13h.14V178h.26v.13h.14v.13h.13v.14h.27v.13h.13v.13h.13v.14H266V179h.13v.13h.14v.14h.26v.13h.14v.13h.13v.14h.27v.13h.13v.13h.13V180h.27v.13h.13v.13h.14v.14h.26v.13h.14v.13h.13v.14h.27V181h.13v.13h.13v.14h.27v.13h.13v.13h.14v.14h.13v.13h.27v.13H270V182h.13v.13h.27v.13h.13v.14h.27v.13h.13v.13h.14v.14h.26V183h.14v.13h.13v.14h.27v.13H272v.13h.13v.14h.27v.13h.13v.13h.14V184h.26v.13h.14v.13h.13v.14h.27v.13h.13v.13h.13v.14H274V185h.13v.13h.14v.14h.26v.13h.14v.13h.13v.14h.27v.13h.13v.13h.13V186h.27v.13h.13v.13h.14v.14h.26v.13h.14v.13h.26v.14h.14V187h.13v.13h.27v.14h.13v.13h.13v.13h.27v.14h.13v.13h.14v.13h.26V188h.14v.13h.13v.13h.27v.14h.13v.13h.27v.13h.13v.14h.13V189h.27v.13h.13v.14h.14v.13h.26v.13h.14v.14h.13v.13h.27v.13h.13V190h.27v.13h.13v.13h.13v.14h.27v.13h.13v.13h.14v.14h.26V191h.14v.13h.13v.14h.27v.13h.13v.13h.27v.14h.13v.13h.13v.13h.27V192h.13v.13h.14v.13h.26v.14h.14v.13h.13v.13h.27v.14h.13V193h.27v.13h.13v.14h.13v.13h.27v.13h.13v.14h.14v.13h.26v.13h.14V194h.26v.13h.14v.13h.13v.14h.27v.13h.13v.13h.27v.14h.13V195h.13v.13H288v.14h.13v.13h.14v.13h.26v.14h.14v.13h.26v.13h.14V196h.13v.13h.27v.13h.13v.14h.27v.13H290v.13h.13v.14h.27V197h.13v.13h.14v.14h.26v.13h.14v.13h.26v.14h.14v.13h.13v.13h.27V198H292v.13h.27v.13h.13v.14h.13v.13h.27v.13h.13v.14h.27V199h.13v.13h.14v.14h.26v.13h.14v.13h.26v.14h.14v.13h.13v.13h.27V200h.13v.13h.27v.13h.13v.14h.13v.13h.27v.13h.13v.14H296V201h.13v.13h.14v.14h.26v.13h.14v.13h.26v.14h.14v.13h.13v.13h.27V202h.13v.13h.27v.13H298v.14h.13v.13h.27v.13h.13v.14h.27V203h.13v.13h.27v.14h.13v.13h.14v.13h.26v.14h.14v.13h.26v.13h.14V204h.26v.13h.14v.13h.13v.14h.27v.13h.13v.13h.27v.14h.13V205h.13v.13H302v.14h.13v.13h.27v.13h.13v.14h.27v.13h.13v.13h.14V206h.26v.13h.14v.13h.26v.14h.14v.13H304v.13h.27v.14h.13V207h.27v.13h.13v.14h.27v.13h.13v.13h.27v.14h.13v.13h.13v.13H306V208h.13v.13h.27v.13h.13v.14h.27v.13h.13v.13h.14v.14h.26V209h.14v.13h.26v.14h.14v.13h.26v.13h.14v.14h.26v.13h.14v.13h.13V210h.27v.13h.13v.13h.27v.14h.13v.13h.27v.13H310v.14h.13V211h.27v.13h.13v.14h.27v.13h.13v.13h.27v.14h.13v.13h.27v.13h.13V212H312v.13h.13v.13h.14v.14h.26v.13h.14v.13h.26v.14h.14V213h.26v.13h.14v.14h.26v.13h.14v.13h.26v.14h.14v.13h.13v.13h.27V214h.13v.13h.27v.13h.13v.14h.27v.13h.13v.13h.27v.14H316V215h.27v.13h.13v.14h.27v.13h.13v.13h.13v.14h.27v.13h.13v.13h.27V216h.13v.13H318v.13h.13v.14h.27v.13h.13v.13h.27v.14h.13V217h.27v.13h.13v.14h.27v.13h.13v.13h.14v.14h.26v.13h.14v.13h.26V218h.14v.13h.26v.13h.14v.14h.26v.13h.14v.13h.26v.14h.14V219h.26v.13h.14v.14h.26v.13h.14v.13h.26v.14h.14v.13h.26v.13h.14V220h.26v.13h.14v.13h.26v.14h.14v.13h.26v.13h.14v.14h.13V221h.27v.13h.13v.14h.27v.13h.13v.13h.27v.14H326v.13h.27v.13h.13V222h.27v.13h.13v.13h.27v.14h.13v.13h.27v.13h.13v.14h.27V223H328v.13h.27v.14h.13v.13h.27v.13h.13v.14h.27v.13h.13v.13h.27V224h.13v.13h.27v.13H330v.14h.27v.13h.13v.13h.27v.14h.13V225h.27v.13h.13v.14h.27v.13h.13v.13h.27v.14H332v.13h.27v.13h.13V226h.27v.13h.13v.13h.27v.14h.13v.13h.27v.13h.13v.14h.27V227H334v.13h.27v.14h.13v.13h.27v.13h.13v.14h.27v.13h.13v.13h.27V228h.13v.13h.27v.13H336v.14h.27v.13h.13v.13h.27v.14h.13V229h.27v.13h.13v.14h.27v.13h.13v.13h.27v.14H338v.13h.27v.13h.13V230h.27v.13h.13v.13h.27v.14h.13v.13h.27v.13h.13v.14h.27V231H340v.13h.27v.14h.13v.13h.27v.13h.13v.14h.27v.13h.13v.13h.27V232h.13v.13h.27v.13H342v.14h.27v.13h.13v.13h.27v.14h.13V233h.27v.13h.13v.14h.27v.13h.13v.13h.13v.14H344v.13h.13v.13h.27V234h.13v.13h.27v-.4h.13v-.27h.14v-.4h.13v-.26h.13v-.4h.14v-.27h.13v-.4h.13v-.4h.14v-.27H346v-.4h.13v-.26h.14V230h.13v-.27h.13v-.4h.14V229h.13v-.27h.13v-.4h.14v-.4h.13v-.26h.13v-.4h.14v-.4h.13v-.27h.13v-.4h.14v-.4H348v-.4h.13v-.27h.14v-.4h.13v-.4h.13v-.53h.14v-.4h.13V223h.13v-.4h.14v-.4h.13v-.4h.13v-.4h.14V221h.13v-.53h.13V220h.14v-.54H350V219h.13v-.53h.14v-.54h.13v-.4h.13V217h.14v-.67h.13v-.66h.13v-.54h.14v-.53h.13V214h.13v-.67h.14v-.53h.13v-.67h.13v-.53h.14V211H352v-.53h.13v-.67h.14v-.53h.13v-.8h.13v-.67h.14v-.67h.13v-.66h.13v-.67h.14v-.67h.13v-.66h.13v-.8h.14V203h.13v-.67h.13v-.8h.14v-.93H354v-.8h.13V199h.14v-.8h.13v-.8h.13v-.93h.14v-.8h.13v-1.07h.13v-1.07h.14v-.93h.13v-1.07h.13v-1.06h.14v-1.07h.13v-1.2h.13v-1.47h.14v-1.33H356V184h.13v-1.47h.14v-1.73h.13v-2.14h.13v-2h.14V174h.13v-3.87h.13v-11.6h-.13v-4.4h-.13v-2.4h-.14v-2.4h-.13v-2h-.13v-1.6h-.14v-1.6H356v-1.6h-.13v-1.47h-.14v-1.2h-.13v-1.2h-.13v-1.2h-.14v-1.2h-.13v-1.2h-.13V134h-.14v-.94h-.13v-.93h-.13v-.93h-.14v-.94h-.13v-.93h-.13v-.93h-.14v-.94H354v-.8h-.13v-.8h-.14v-.8h-.13v-.8h-.13v-.8h-.14v-.8h-.13V122h-.13v-.8h-.14v-.8h-.13v-.67h-.13v-.67h-.14v-.66h-.13v-.67h-.13v-.67h-.14v-.66H352v-.67h-.13v-.67h-.14v-.66h-.13v-.67h-.13v-.67h-.14v-.53h-.13v-.67h-.13v-.53h-.14v-.53h-.13v-.67h-.13v-.53h-.14V109h-.13v-.53h-.13v-.54h-.14v-.66H350v-.54h-.13v-.53h-.14v-.53h-.13v-.54h-.13v-.53h-.14V104h-.13v-.54h-.13v-.4h-.14v-.53h-.13V102h-.13v-.54h-.14V101h-.13v-.53h-.13v-.54h-.14v-.53H348V99h-.13v-.53h-.14V98h-.13v-.54h-.13v-.4h-.14v-.53h-.13v-.4h-.13v-.53h-.14v-.4h-.13v-.54h-.13v-.4h-.14v-.53h-.13v-.4h-.13v-.53h-.14v-.4H346V92h-.13v-.4h-.14v-.4h-.13v-.54h-.13v-.4h-.14v-.4h-.13v-.4h-.13v-.4h-.14v-.53h-.13v-.4h-.13v-.4h-.14v-.4h-.13V87h-.13v-.4h-.14V86H344v-.4h-.13v-.4h-.14V85h-.13v-.4h-.13v-.4h-.14v-.4h-.13v-.4h-.13V83h-.14v-.4h-.13v-.4h-.13v-.4h-.14v-.4h-.13V81h-.13v-.4h-.14v-.4H342v-.27h-.13v-.4h-.14v-.4h-.13v-.4h-.13v-.4h-.14V78h-.13v-.4h-.13v-.4h-.14V77h-.13v-.4h-.13v-.4h-.14v-.27h-.13v-.4h-.13v-.4h-.14v-.4H340v-.26h-.13V74h-.14v-.4h-.13v-.27h-.13V73h-.14v-.4h-.13v-.27h-.13v-.4h-.14v-.26h-.13v-.4h-.13V71h-.14v-.4h-.13v-.27h-.13v-.4h-.14v-.26H338v-.4h-.13V69h-.14v-.4h-.13v-.27h-.13v-.4h-.14v-.26h-.13v-.4h-.13V67h-.14v-.4h-.13v-.27h-.13v-.4h-.14v-.26h-.13v-.4h-.13V65h-.14v-.27H336v-.4h-.13V64h-.14v-.27h-.13v-.27h-.13v-.4h-.14v-.26h-.13v-.27h-.13v-.4h-.14v-.27h-.13v-.26h-.13v-.4h-.14V61h-.13v-.27h-.13v-.4h-.14V60H334v-.27h-.13v-.4h-.14v-.27h-.13v-.26h-.13v-.4h-.14v-.27h-.13v-.27h-.13v-.26h-.14v-.27h-.13v-.27h-.13v-.4h-.14v-.26h-.13v-.27h-.13v-.27h-.14v-.26H332v-.27h-.13V55h-.14v-.27h-.13v-.26h-.13v-.27h-.14v-.27h-.13v-.26h-.13v-.4h-.14V53h-.13v-.27h-.13v-.26h-.14v-.27h-.13v-.27h-.13v-.26h-.14v-.27H330v-.27h-.13v-.26h-.14v-.4h-.13v-.27h-.13v-.27h-.14v-.26h-.13v-.27h-.13v-.27h-.14v-.26h-.13v-.27h-.13v-.27h-.14V48h-.13v-.27h-.13v-.27h-.14v-.26H328V47h-.13v-.27h-.14v-.26h-.13v-.27h-.13v-.27h-.14v-.26h-.13v-.27h-.13v-.27h-.14v-.26h-.13v-.27h-.13v-.27h-.14V44h-.13v-.27h-.13v-.27h-.14v-.26H326v-.14h-.13v-.26h-.14v-.27h-.13v-.27h-.13V42h-.14v-.27h-.13v-.27h-.13v-.26h-.14V41h-.13v-.27h-.13v-.26h-.14v-.14h-.13V40h-.13v-.27h-.14v-.27H324v-.26h-.13V39h-.14v-.27h-.13v-.26h-.13v-.27h-.14V38h-.13v-.27h-.13v-.27h-.14v-.26h-.13V37h-.13v-.13h-.14v-.27h-.13v-.27h-.13V36h-.14v-.27H322v-.13h-.13v-.27h-.14v-.27h-.13v-.26h-.13v-.27h-.14v-.27h-.13v-.13h-.13v-.27h-.14v-.26h-.13v-.27h-.13v-.27h-.14V33h-.13v-.27h-.13v-.26h-.14v-.27H320v-.27h-.13v-.13h-.14v-.27h-.13v-.26h-.13v-.14h-.14v-.26h-.13v-.27h-.13v-.13h-.14v-.27h-.13v-.27h-.13v-.26h-.14v-.14h-.13v-.26h-.13V29h-.14v-.13H318v-.27h-.13v-.27h-.14V28h-.13v-.14h-.13v-.26h-.14v-.27h-.13v-.13h-.13V27h-.14v-.27h-.13v-.13h-.13v-.27h-.14V26h-.13v-.27h-.13v-.13h-.14v-.27H316v-.27h-.13V25h-.14v-.27h-.13v-.13h-.13v-.27h-.14V24h-.13v-.14h-.13v-.26h-.14v-.14h-.13v-.26h-.13V23h-.14v-.13h-.13v-.27h-.13v-.27h-.14v-.13H314v-.27h-.13v-.13h-.14v-.27h-.13v-.26h-.13v-.14h-.14v-.26h-.13v-.27h-.13v-.13h-.14v-.27h-.13V20h-.13v-.27h-.14v-.27h-.13v-.13h-.13v-.27h-.14V19H312v-.27h-.13v-.13h-.14v-.27h-.13V18h-.13v-.14h-.14v-.26h-.13v-.14h-.13v-.26h-.14v-.14h-.13v-.26h-.13v-.14h-.14v-.26h-.13v-.14h-.13V16h-.14v-.14H310v-.26h-.13v-.14h-.14v-.26h-.13V15h-.13v-.13h-.14v-.27h-.13v-.13h-.13v-.27h-.14V14h-.13v-.27h-.13v-.13h-.14v-.27h-.13v-.13h-.13V13h-.14v-.13H308v-.27h-.13v-.13h-.14v-.27h-.13V12h-.13v-.27h-.14v-.13h-.13v-.27h-.13v-.13h-.14V11h-.13v-.13h-.13v-.14h-.14v-.26h-.13v-.14h-.13V10h-.14V9.89H306V9.63h-.13V9.49h-.14V9.23h-.13V9.09h-.13V8.83h-.14V8.69h-.13V8.56h-.13V8.29h-.14V8.16h-.13V7.89h-.13V7.76h-.14V7.49h-.13V7.36h-.13V7.09h-.14V7H304V6.69h-.13V6.56h-.14V6.29h-.13V6.16h-.13V6h-.14V5.76h-.13V5.63h-.13V5.36h-.14V5.23h-.13V5.09h-.13V4.83h-.14V4.69h-.13V4.56h-.13V4.29h-.14V4.16H302V3.89h-.13V3.76h-.14V3.63h-.13V3.36h-.13V3.23h-.14V3h-.13V2.83h-.13V2.69h-.14V2.43h-.13V2.29h-.13V2h-.14V1.89h-.13V1.76h-.13V1.49h-.14V1.36H300V1.09h-.13V1h-.14V.83h-.13V.56h-.13V.43h-.14V.29h-.13V0h.27V.16h.26V.29H300V.43h.13V.56h.27V.69h.27V.83h.13V1h.27v.13h.26v.14h.14v.13h.26v.13H302v.14h.13v.13h.27v.13h.13V2h.27v.13h.27v.13h.13v.14h.27v.13h.13v.13h.27v.14h.26V3h.14v.13h.26v.14h.14v.13h.26v.13h.14v.14h.26v.13h.27v.13h.13V4H306v.13h.13v.13h.27v.14h.13v.13h.27v.13h.27v.14h.13V5h.27v.13h.13v.14h.27v.13H308v.13h.27v.14h.26v.13h.14v.13h.26V6h.14v.13h.26v.13h.27v.14h.13v.13h.14v.13h.26v.14h.14V7h.26v.13h.14v.14h.26v.13h.14v.13h.26v.14h.14v.13h.26v.13h.14V8h.26v.13h.14v.13h.26v.14h.14v.13h.26v.13h.14v.14h.26V9h.14v.13h.26v.14h.14v.13h.26v.13h.14v.14h.26v.13h.14v.13h.13V10h.27v.13h.13v.13h.27v.14h.13v.13h.27v.13H316v.14h.27V11h.13v.13h.27v.14h.13v.13h.27v.13h.13v.14h.27v.13h.13v.13h.27V12H318v.13h.27v.13h.13v.14h.27v.13h.13v.13h.27v.14h.13V13h.13v.13h.27v.14h.13v.13H320v.13h.13v.14h.14v.13h.26v.13h.14V14h.13v.13h.27v.13h.13v.14h.27v.13h.13v.13h.13v.14H322V15h.13v.13h.14v.14h.26v.13h.14v.13h.26v.14h.14v.13h.13v.13h.27V16h.13v.13h.13v.13H324v.14h.13v.13h.27v.13h.13v.14h.14V17h.26v.13h.14v.14h.13v.13h.27v.13h.13v.14h.27v.13H326v.13h.13V18h.27v.13h.13v.13h.14v.14h.26v.13h.14v.13h.26v.14h.14V19h.13v.13h.27v.14H328v.13h.13v.13h.27v.14h.13v.13h.14v.13h.26V20h.14v.13h.26v.13h.14v.14h.13v.13h.13v.13H330v.14h.13V21h.14v.13h.13v.14h.27v.13h.13v.13h.13v.14h.27v.13h.13v.13h.14V22h.13v.13h.27v.13H332v.14h.13v.13h.27v.13h.13v.14h.14V23h.13v.13h.27v.14h.13v.13h.13v.13h.14v.14h.26v.13h.14v.13H334V24h.27v.13h.13v.13h.13v.14h.14v.13h.26v.13h.14v.14h.13V25h.13v.13h.27v.14h.13v.13h.14v.13h.26v.14h.14v.13h.13v.13h.13V26h.27v.13h.13v.13h.14v.14h.26v.13h.14v.13h.13v.14h.13V27H338v.13h.13v.14h.14v.13h.13v.13h.27v.14h.13v.13h.13v.13h.14V28h.13v.13h.27v.13h.13v.14h.13v.13h.14v.13H340v.14h.27V29h.13v.13h.13v.14h.14v.13h.13v.13h.27v.14h.13v.13h.13v.13h.14V30h.13v.13h.13v.13H342v.14h.13v.13h.14v.13h.13v.14h.13V31h.27v.13h.13v.14h.14v.13h.13v.13h.13v.14h.27v.13h.13v.13h.14V32H344v.13h.13v.13h.14v.14h.26v.13h.14v.13h.13v.14h.13V33h.14v.13h.26v.14h.14v.13h.13v.13h.13v.14h.14v.13h.26v.13h.14V34h.13v.13h.13v.13h.14v.14h.13v.13h.27v.13h.13v.14h.13V35h.14v.13h.13v.14h.27v.13H348v.13h.13v.14h.14v.13h.13v.13h.13V36h.14v.13h.13v.13h.13v.14h.27v.13h.13v.13h.14v.14h.13V37h.13v.13h.14v.14H350v.13h.13v.13h.14v.14h.13v.13h.27v.13h.13V38h.13v.13h.14v.13h.13v.14h.13v.13h.14v.13h.13v.14h.13V39H352v.13h.13v.14h.14v.13h.13v.13h.13v.14h.14v.13h.13v.13h.13V40h.14v.13h.26v.13h.14v.14h.13v.13h.13v.13h.14v.14H354V41h.13v.13h.14v.14h.13v.13h.13v.13h.27v.14h.13v.13h.14v.13h.13V42h.13v.13h.14v.13h.13v.14h.13v.13h.14v.13h.26v.14h.14V43h.13v.13h.13v.14h.14v.13h.13v.13h.13v.14h.14v.13h.13v.13h.13V44h.14v.13h.13v.13h.13v.14h.14v.13H358v.13h.13v.14h.14V45h.13v.13h.13v.14h.14v.13h.13v.13h.13v.14h.27v.13h.13v.13h.14V46h.13v.13h.13v.13h.14v.14H360v.13h.13v.13h.14v.14h.13V47h.13v.13h.14v.14h.13v.13h.13v.13h.14v.14h.13v.13h.13v.13h.14V48h.13v.13h.13v.13h.14v.14H362v.13h.13v.13h.14v.14h.13V49h.13v.13h.14v.14h.13v.13h.13v.13h.14v.14h.26v.13h.14v.13h.13V50h.13v.13h.14v.13H364v.14h.13v.13h.14v.13h.13v.14h.13V51h.14v.13h.13v.14h.13v.13h.14v.13h.13v.14h.13v.13h.14v.13h.13V52h.13v.13h.14v.13H366v.14h.13v.13h.14v.13h.13v.14h.13v.26h.14v.14h.13v.13h.13v.13h.14v.14h.13v.13h.13v.13h.14V54h.13v.13h.13v.13h.14v.14H368v.13h.13v.13h.14v.14h.13V55h.13v.13h.14v.14h.13v.13h.13v.13h.14v.14h.13v.13h.13v.13h.14V56h.13v.13h.13v.13h.14v.14H370v.13h.13v.27h.14V57h.13v.13h.13v.14h.14v.13h.13v.13h.13v.14h.14v.13h.13v.13h.13V58h.14v.13h.13v.13h.13v.14h.14v.13H372v.13h.13v.14h.14V59h.13v.13h.13v.14h.14v.13h.13v.13h.13v.14h.14v.13h.13v.13h.13v.27h.14v.13h.13v.14h.13v.13h.14v.13H374v.14h.13V61h.14v.13h.13v.14h.13v.26h.14v.14h.13v.13h.13v.13h.14V62h.13v.13h.13v.13h.14v.14h.13v.13h.13v.27h.14V63H376v.13h.13v.14h.14v.13h.13v.13h.13v.14h.14v.13h.13v.13h.13v.27h.14v.13h.13v.14h.13v.13h.14v.13h.13v.14h.13V65h.14v.13H378v.14h.13v.26h.14v.14h.13v.13h.13v.13h.14V66h.13v.13h.13v.13h.14v.14h.13v.13h.13v.27h.14V67h.13v.13h.13v.14h.14v.13H380v.13h.13v.14h.14v.13h.13v.13h.13v.27h.14v.13h.13v.14h.13v.13h.14v.13h.13v.14h.13v.26h.14v.14h.13v.13h.13v.13h.14v.14H382v.13h.13V70h.14v.13h.13v.13h.13v.14h.14v.13h.13v.27h.13V71h.14v.13h.13v.14h.13v.13h.14v.27h.13v.13h.13v.13h.14V72H384v.13h.13v.27h.14v.13h.13v.13h.13v.14h.14V73h.13v.27h.13v.13h.14v.13h.13v.14h.13v.13h.14v.13h.13v.27h.13v.13h.14v.14H386v.13h.13v.13h.14V75h.13v.13h.13v.14h.14v.13h.13v.13h.13v.27h.14v.13h.13V76h.13v.13h.14v.13h.13v.27h.13v.13h.14v.14H388V77h.13v.13h.14v.14h.13v.26h.13v.14h.14v.13h.13V78h.13v.13h.14v.13h.13v.14h.13v.26h.14v.14h.13V79h.13v.27h.14v.13H390v.13h.13v.14h.14v.26h.13V80h.13v.13h.14v.27h.13v.13h.13v.13h.14v.14h.13v.26h.13v.14h.14v.13h.13v.13h.13v.27h.14v.13H392V82h.13v.26h.14v.14h.13v.13h.13v.13h.14V83h.13v.13h.13v.14h.14v.26h.13v.14h.13v.13h.14v.13h.13v.27h.13v.13h.14v.14H394v.13h.13v.27h.14V85h.13v.13h.13v.27h.14v.13h.13v.14h.13v.13h.14V86h.13v.13h.13v.13h.14v.27h.13v.13h.13v.14h.14v.26H396v.14h.13v.13h.14v.27h.13v.13h.13V88h.14v.13h.13v.13h.13v.27h.14v.13h.13v.14h.13v.26h.14v.14h.13v.26h.13v.14h.14v.13H398V90h.13v.13h.14v.27h.13v.13h.13v.13h.14V91h.13v.13h.13v.14h.14v.26h.13v.14h.13v.26h.14V92h.13v.13h.13v.27h.14v.13H400v.13h.13V93h.14v.13h.13v.27h.13v.13h.14v.14h.13v.26h.13V94h.14v.13h.13v.27h.13v.13h.14v.27h.13V95h.13v.13h.14v.27H402v.13h.13v.14h.14v.26h.13V96h.13v.26h.14v.14h.13v.26h.13v.14h.14v.26h.13v.14h.13v.26h.14v.14h.13v.26h.13V98h.14v.26H404v.14h.13v.26h.14v.14h.13v.26h.13v.14h.14v.26h.13v.14h.13v.26h.14V100h.13v.13h.13v.27h.14v.13h.13v.27h.13V101h.14v.27H406v.13h.13v.27h.14v.13h.13V102h.13v.13h.14v.27h.13v.13h.13v.27h.14V103h.13v.27h.13v.13h.14v.27h.13v.13h.13V104h.14v.13H408v.27h.13v.13h.14v.27h.13V105h.13v.27h.14v.13h.13v.27h.13v.13h.14V106h.13v.26h.13v.14h.14v.26h.13v.14h.13v.26h.14v.27H410v.13h.13v.27h.14v.13h.13v.27h.13v.27h.14v.13h.13v.27h.13V109h.14v.27h.13v.26h.13v.14h.14v.26h.13V110h.13v.26h.14v.27H412v.13h.13V111h.14v.13h.13v.27h.13v.27h.14v.13h.13V112h.13v.13h.14v.27h.13v.26h.13v.14h.14v.26h.13v.27h.13v.13h.14v.27H414v.13h.13v.27h.14v.27h.13v.13h.13v.27h.14V115h.13v.27h.13v.26h.14v.27h.13v.13h.13v.27h.14v.27h.13v.26h.13v.14h.14v.26H416v.27h.13v.27h.14v.13h.13V118h.13v.26h.14v.27h.13v.13h.13V119h.14v.27h.13v.26h.13v.14h.14v.26h.13v.27h.13v.13h.14v.27H418v.27h.13v.26h.14v.14h.13v.26h.13v.27h.14V122h.13v.13h.13v.27h.14v.26h.13V123h.13v.13h.14v.27h.13v.27h.13v.26h.14V124H420v.26h.13v.27h.14v.27h.13v.26h.13v.14h.14v.26h.13v.27h.13V126h.14v.26h.13v.27h.13v.27h.14v.26h.13v.27h.13v.27h.14v.13H422V128h.13v.26h.14v.27h.13v.27h.13v.26h.14v.27h.13v.27h.13v.26h.14v.27h.13v.13h.13v.27h.14v.27h.13v.26h.13v.27h.14v.27H424v.26h.13v.27h.14v.27h.13v.26h.13v.14h.14v.26h.13v.27h.13v.27h.14v.26h.13v.27h.13v.27h.14v.26h.13V135h.13v.27h.14v.26H426v.27h.13V136h.14v.26h.13v.27h.13v.27h.14v.4h.13v.26h.13v.27h.14V138h.13v.26h.13v.27h.14v.27h.13v.26h.13v.27h.14v.27H428v.26h.13v.27h.14v.4h.13v.27h.13v.26h.14v.27h.13v.27h.13v.26h.14v.27h.13v.27h.13v.26h.14V143h.13v.27h.13v.26h.14v.4H430v.27h.13v.27h.14v.26h.13V145h.13v.27h.14v.4h.13v.26h.13v.27h.14v.4h.13v.27h.13v.26h.14v.4h.13v.27h.13V148h.14v.26H432v.4h.13V149h.14v.27h.13v.4h.13v.26h.14v.27h.13v.4h.13v.27h.14v.26h.13v.27h.13v.4h.14V152h.13v.26h.13v.4h.14V153H434v.27h.13v.4h.14v.26h.13v.27h.13v.27h.14v.4h.13v.26h.13v.4h.14v.4h.13v.27h.13v.4h.14v.27h.13v.4h.13v.26h.14v.4H436v.4h.13v.27h.14v.4h.13v.27h.13v.4h.14v.26h.13v.4h.13v.27h.14v.4h.13v.4h.13v.27h.14v.4h.13v.26h.13v.4h.14V163H438v.4h.13v.4h.14V164h.13v.4h.13v.26h.14v.4h.13v.4h.13v.4h.14v.4h.13v.4h.13v.4h.14v.27h.13v.4h.13v.4h.14v.4H440v.4h.13v.4h.14v.4h.13v.4h.13v.4h.14v.4h.13v.27h.13v.4h.14v.4h.13v.4h.13v.4h.14v.4h.13v.4h.13v.4h.14v.4H442v.26h.13v.4h.14v.54h.13v.4h.13v.4h.14V177h.13v.4h.13v.4h.14v.53h.13v.4h.13v.4h.14v.54h.13v.4h.13v.4h.14V181H444v.4h.13v.4h.14v.53h.13v.4h.13v.4h.14v.54h.13v.4h.13v.4h.14V185h.13v.4h.13v.4h.14v.53h.13v.54h.13v.53h.14v.53H446v.54h.13V189h.14v.53h.13V190h.13v.53h.14v.4h.13v.53h.13V192h.14v.53h.13v.53h.13v.54h.14v.53h.13v.53h.13v.54h.14v.53H448v.53h.13V197h.14v.53h.13v.67h.13v.67h.14v.53h.13V200h.13v.66h.14v.67h.13v.53h.13v.67h.14v.67h.13v.53h.13v.67h.14v.66H450v.67h.13v.53h.14v.8h.13v.8h.13v.8h.14v.8h.13v.8h.13v.8h.14v.8h.13v.8h.13v.8h.14v.8h.13v.8h.13v.8h.14v.8H452v1.07h.13v1.07h.14v1.06h.13V221h.13V222h.14v1.2h.13v1.06h.13v1.07h.14v1.07h.13v1.2h.13v1.73h.14v1.73h.13V233h.13v1.73h.14v1.74H454v2.26h.13v4.54h.14v4.53h.13v1.47h-.13v7.2h-.14v3.73H454v2h-.13V264h-.14v2h-.13v2h-.13v1.6h-.14v1.2h-.13v1.06h-.13v1.2h-.14v1.07h-.13v1.07h-.13v1.2h-.14v1.06h-.13v1.2h-.13v.94h-.14v.8H452v.8h-.13v.8h-.14v.8h-.13v.8h-.13v.8h-.14v.8h-.13v.8h-.13v.66h-.14v.8h-.13v.8h-.13v.8h-.14v.67h-.13v.67h-.13v.66h-.14v.54H450v.66h-.13V293h-.14v.53h-.13v.67h-.13v.67h-.14v.53h-.13V296h-.13v.66h-.14v.54h-.13v.53h-.13v.53h-.14v.54h-.13v.53h-.13v.4h-.14V300H448v.4h-.13v.4h-.14v.26h-.13v.4h-.13V302h-.14v.4h-.13V303h-.13v.53h-.14v.4h-.13v.54h-.13V305h-.14v.4h-.13v.4h-.13v.4h-.14v.27H446v.4h-.13v.4H446v.13h.13v.13h.14v.27h.13v.13h.13V308h.14v.13h.13v.27h.13v.13h.14v.13h.13v.14h.13v.26h.14v.14h.13v.13h.13v.27h.14v.13H448v.13h.13V310h.14v.26h.13v.14h.13v.13h.14v.27h.13V311h.13v.13h.14v.14h.13v.26h.13v.14h.14v.13h.13V312h.13v.13h.14v.13H450v.27h.13v.13h.14v.14h.13V313h.13v.27h.14v.13h.13v.13h.13v.27h.14v.13h.13v.27h.13v.13h.14v.14h.13v.26h.13v.14h.14v.26H452v.14h.13v.13h.14v.27h.13v.13h.13v.13h.14v.27h.13v.13h.13v.27h.14v.13h.13v.14h.13v.26h.14v.14h.13v.26h.13v.14h.14v.13H454V318h.13v.13h.14v.27h.13v.13h.13v.13h.14V319h.13v.13h.13v.27h.14v.13h.13v.14h.13v.26h.14V320h.13v.26h.13v.14h.14v.26H456v.14h.13v.26h.14v.14h.13v.26h.13v.14h.14v.26h.13V322h.13v.26h.14v.14h.13v.26h.13V323h.14v.13h.13v.27h.13v.13h.14v.27H458v.13h.13v.27h.14v.13h.13v.27h.13v.13h.14V325h.13v.13h.13v.27h.14v.13h.13v.27h.13v.13h.14v.27h.13v.13h.13v.27h.14v.27H460V327h.13v.27h.14v.26h.13v.14h.13v.26h.14v.27h.13v.13h.13v.27h.14v.27h.13V329h.13v.27h.14v.26h.13v.14h.13v.26h.14v.27H462v.13h.13v.27h.14v.27h.13V331h.13v.27h.14v.26h.13v.14h.13v.26h.14v.27h.13v.13h.13v.27h.14v.27h.13V333h.13v.27h.14v.26H464v.27h.13V334h.14v.26h.13v.14h.13v.26h.14V335h.13v.27h.13v.26h.14v.14h.13v.26h.13v.27h.14v.27h.13v.26h.13V337h.14v.13H466v.27h.13v.27h.14v.26h.13v.27h.13v.13h.14v.27h.13v.27h.13v.26h.14v.27h.13v.27h.13v.26h.14v.27h.13v.27h.13v.26h.14V341H468v.27h.13v.26h.14v.27h.13V342h.13v.26h.14v.27h.13v.27h.13v.26h.14v.27h.13v.27h.13v.26h.14v.27h.13v.27h.13v.26h.14V345H470v.27h.13v.26h.14v.27h.13v.4h.13v.27h.14v.26h.13V347h.13v.27h.14v.4h.13v.26h.13v.27h.14v.27h.13v.26h.13v.4h.14v.27H472v.27h.13v.26h.14v.27h.13v.4h.13v.27h.14v.26h.13v.27h.13v.4h.14V352h.13v.26h.13v.4h.14V353h.13v.4h.13v.27h.14v.4H474v.26h.13v.4h.14V355h.13v.27h.13v.4h.14v.26h.13v.4h.13v.27h.14v.4h.13v.27h.13v.4h.14v.26h.13v.4h.13v.4h.14V359H476v.4h.13v.4h.14V360h.13v.4h.13v.4h.14v.4h.13v.26h.13v.4h.14v.4h.13v.27h.13v.4h.14v.4h.13v.4h.13v.4h.14v.4H478v.4h.13v.4h.14v.4h.13v.4h.13v.4h.14v.4h.13v.4h.13v.4h.14v.4h.13v.4h.13v.4h.14v.4h.13v.53h.13v.4h.14v.54H480v.4h.13v.53h.14v.4h.13v.4h.13v.53h.14v.4h.13V374h.13v.4h.14V375h.13v.4h.13v.53h.14v.54h.13V377h.13v.53h.14V378H482v.53h.13v.53h.14v.54h.13v.53h.13v.53h.14v.54h.13v.66h.13v.54h.14v.66h.13v.67h.13v.53h.14V385h.13v.53h.13v.67h.14v.67H484v.8h.13v.66h.14v.8h.13v.67h.13v.8h.14v.67h.13v.8h.13V393h.14v.93h.13v.8h.13v.94h.14v.93h.13v1.07h.13v1.2h.14V400H486v1.06h.13v1.6h.14v1.6h.13v1.6h.13v2.8h.14V419h-.14v2.27h-.13v1.33h-.13v1.33h-.14V425H486v.93h-.13v.94h-.14v.8h-.13v.53h-.13v.67h-.14v.66h-.13V430h-.13v.4h-.14V431h-.13v.53h-.13v.27h-.14v.4h-.13v.4h-.13v.27h-.14v.4H484v.13h-.13v.27h-.14v.26h-.13v.27h-.13v.13h-.14v.14h-.13v.13h-.13v.13h-.14v.14h-.13V435h-.27v.13" transform="translate(0 -0.03)"/></g></g></g></g></g></g></g></svg>